<svg width="281" height="281" viewBox="0 0 281 281" fill="none" xmlns="http://www.w3.org/2000/svg">
<path d="M140.497 240.289C200.678 240.289 249.464 237.44 249.464 233.927C249.464 230.413 200.678 227.565 140.497 227.565C80.3171 227.565 31.5312 230.413 31.5312 233.927C31.5312 237.44 80.3171 240.289 140.497 240.289Z" fill="#F5F5F5"/>
<path d="M55.0753 58.7571C52.2087 62.5873 49.8739 66.788 48.1346 71.2448C33.843 107.629 52.181 150.105 83.2821 171.281C108.937 188.759 141.269 195.953 171.966 191.771C201.325 187.77 250.646 165.919 234.606 127.495C226.053 107.039 203.466 105.212 184.706 100.373C175.04 97.8836 165.778 94.0058 158.798 86.6717C151.11 78.6126 147.243 67.7547 139.662 59.5945C132.536 51.9176 122.566 45.7693 112.748 42.2512C90.9141 34.4225 68.1812 41.3688 55.0753 58.7571Z" fill="#1427C8"/>
<path opacity="0.9" d="M55.0753 58.7571C52.2087 62.5873 49.8739 66.788 48.1346 71.2448C33.843 107.629 52.181 150.105 83.2821 171.281C108.937 188.759 141.269 195.953 171.966 191.771C201.325 187.77 250.646 165.919 234.606 127.495C226.053 107.039 203.466 105.212 184.706 100.373C175.04 97.8836 165.778 94.0058 158.798 86.6717C151.11 78.6126 147.243 67.7547 139.662 59.5945C132.536 51.9176 122.566 45.7693 112.748 42.2512C90.9141 34.4225 68.1812 41.3688 55.0753 58.7571Z" fill="white"/>
<path d="M84.0027 50.344C84.0027 50.344 82.9181 47.6913 76.2359 48.4781C69.5537 49.2649 68.8625 58.1108 65.5242 64.3996C62.1859 70.6884 58.6397 73.74 58.6397 73.74C58.6397 73.74 58.1507 77.5729 65.423 79.7366C72.6953 81.9003 86.9476 78.2866 86.9476 78.2866C86.9476 78.2866 88.791 61.5446 86.054 56.4361C83.3171 51.3275 84.0027 50.344 84.0027 50.344Z" fill="#263238"/>
<path d="M103.537 217.578L94.4835 218.14C94.4835 218.14 90.645 183.251 86.4188 157.849C86.4188 157.765 86.4188 157.669 86.3794 157.574C84.6485 147.205 82.8557 138.466 81.2371 134.369C81.2371 134.369 79.1577 166.892 78.5395 181.329C77.9213 195.767 75.0383 221.029 75.0383 221.029L66.6701 222.271C66.6701 222.271 65.2876 171.983 66.1081 162.485C66.9286 152.988 63.1913 117.806 69.6318 109.095H92.9267C92.9267 109.095 101.947 158.518 102.599 172.219C103.251 185.921 103.537 217.578 103.537 217.578Z" fill="#263238"/>
<path d="M73.0719 221.141L72.937 223.839L72.6223 230.083L67.9352 230.78L67.8284 224.041L67.7891 221.45L73.0719 221.141Z" fill="#FF8B7B"/>
<path d="M101.525 227.981L96.2814 229.442C96.2814 229.442 96.1578 226.289 96.0342 223.26C95.9555 221.31 95.8768 219.41 95.8262 218.438C95.8262 218.062 95.7925 217.831 95.7812 217.781L101.435 217.219V218.995L101.474 223.007L101.525 227.981Z" fill="#FF8B7B"/>
<path d="M74.5078 228.7C74.5078 228.7 75.3789 225.21 76.7558 225.384C78.1327 225.559 74.5078 228.7 74.5078 228.7Z" stroke="#1427C8" stroke-width="0.562" stroke-miterlimit="10"/>
<path d="M74.9062 228.7C74.9062 228.7 78.1827 226.39 78.7897 227.576C79.3966 228.762 74.9062 228.7 74.9062 228.7Z" stroke="#1427C8" stroke-width="0.562" stroke-miterlimit="10"/>
<path d="M103.539 229.054C103.539 229.054 104.27 225.362 105.096 225.362C105.922 225.362 103.539 229.054 103.539 229.054Z" stroke="#1427C8" stroke-width="0.562" stroke-miterlimit="10"/>
<path d="M103.363 230.201C103.363 230.201 105.285 226.419 106.291 227.233C107.297 228.048 103.363 230.201 103.363 230.201Z" stroke="#1427C8" stroke-width="0.562" stroke-miterlimit="10"/>
<path d="M78.5991 233.23C78.5991 233.23 68.6067 233.489 67.8817 233.399C67.1567 233.309 66.3531 233.269 66.2969 232.483C66.2969 232.1 66.6397 229.779 66.6959 228.97C66.7521 228.161 66.5498 227.739 67.567 227.481C68.5842 227.222 73.5242 226.649 74.1199 227.262C74.7156 227.874 76.7501 230.206 78.2562 230.476C79.7624 230.746 81.0269 230.639 81.1337 231.493C81.2405 232.348 81.2742 233.168 78.5991 233.23Z" fill="#263238"/>
<path d="M107.371 233.23C107.371 233.23 97.3846 233.489 96.654 233.399C95.9234 233.309 95.2041 233.09 95.0861 232.724C94.9681 232.359 95.4176 229.779 95.4682 228.97C95.5188 228.161 95.3221 227.739 96.3393 227.481C97.3566 227.222 102.297 226.649 102.892 227.262C103.488 227.874 105.522 230.206 107.034 230.476C108.546 230.746 109.799 230.639 109.906 231.493C110.013 232.348 110.047 233.168 107.371 233.23Z" fill="#263238"/>
<path opacity="0.3" d="M86.3806 157.568C84.6496 147.199 82.8568 138.46 81.2383 134.363L82.3117 128.473C82.3117 128.473 85.0936 149.492 86.3806 157.568Z" fill="black"/>
<path opacity="0.2" d="M73.0641 221.141L72.9292 223.839C71.6141 223.89 68.9952 223.985 67.8206 224.041L67.7812 221.45L73.0641 221.141Z" fill="black"/>
<path opacity="0.2" d="M101.487 223.002L96.0361 223.26C95.9574 221.31 95.8787 219.41 95.8281 218.438L101.448 219L101.487 223.002Z" fill="black"/>
<path d="M105.081 217.213L104.244 221.49L94.2626 222.265L92.9531 217.213H105.081Z" fill="#1427C8"/>
<path d="M76.3821 218.607L75.5054 222.833L65.0859 223.328L65.0916 218.607H76.3821Z" fill="#1427C8"/>
<path d="M107.289 96.0401C105.041 97.1136 98.8588 98.2881 98.8588 98.2881C98.8588 98.2881 94.8124 87.8293 93.7446 81.8834C93.4095 79.7577 92.3942 77.798 90.8509 76.2983C89.3077 74.7986 87.3197 73.8398 85.1853 73.5658C82.454 73.2117 70.9218 73.3297 66.8754 74.1615C62.829 74.9933 62.1265 80.9336 61.7668 84.5023C61.4071 88.071 59.1535 101.362 61.053 105.296C62.9526 109.23 69.6123 107.668 69.6123 107.668V109.095H92.9128L92.3508 98.1926C92.3508 98.1926 94.5539 103.981 97.9708 104.217C101.388 104.453 109.143 98.7546 109.143 98.7546L107.289 96.0401ZM66.2628 102.138C66.2628 102.138 66.5213 95.3489 66.9821 93.3931L67.6846 97.018L68.6738 102.138H66.2628Z" fill="#1427C8"/>
<path d="M81.0833 100.598L84.7475 96.1639L89.8898 95.3771L90.6766 99.9461L86.7426 101.385C86.7426 101.385 84.8487 103.667 81.0664 103.273L81.0833 100.598Z" fill="#FF8B7B"/>
<path d="M107.285 96.0402L109.19 92.5446L113.838 90.5888L115.597 95.3489L111.747 96.8495C111.747 96.8495 110.741 99.0638 109.19 98.7771L107.285 96.0402Z" fill="#FF8B7B"/>
<path d="M81.1596 69.3058C81.1344 69.7101 81.1344 70.1155 81.1596 70.5198C81.2158 71.2897 81.0697 72.7003 82.5815 73.4422C81.8003 75.1282 79.9176 79.3544 78.7767 80.7875C77.0401 79.3656 72.96 73.6276 72.96 73.6276C72.96 73.6276 75.8262 70.5198 73.7693 64.6637C73.7693 64.6637 70.8806 62.5506 71.4595 61.3873C72.1226 60.0328 74.0053 60.7634 74.4044 61.3367C73.9829 60.7185 72.0215 53.9351 74.4044 51.4399C75.888 49.8831 77.3717 49.8663 80.1368 49.7539H80.3672C82.1375 49.692 83.4526 49.7539 83.4526 49.7539C84.0536 50.4013 84.5831 51.1117 85.0318 51.8726C86.2857 53.9197 87.0547 56.2266 87.2798 58.6166C87.8025 64.186 86.7065 68.6989 81.1596 69.3058Z" fill="#FF8B7B"/>
<path d="M82.6838 62.382C82.6838 62.382 80.1661 63.2362 79.25 61.3254" stroke="#263238" stroke-width="0.281" stroke-linecap="round" stroke-linejoin="round"/>
<path d="M79.6468 54.3454C79.2257 54.333 78.8095 54.4392 78.4459 54.6518C78.0822 54.8644 77.7856 55.175 77.5898 55.5481" stroke="#263238" stroke-width="0.562" stroke-linecap="round" stroke-linejoin="round"/>
<path d="M86.0548 53.7665C85.8507 53.5433 85.6037 53.3635 85.3285 53.2379C85.0532 53.1124 84.7555 53.0437 84.4531 53.0359" stroke="#263238" stroke-width="0.562" stroke-linecap="round" stroke-linejoin="round"/>
<path d="M83.7407 61.3479L83.2461 57.1385L85.7245 60.3195C85.7245 60.3195 85.4829 61.4154 83.7407 61.3479Z" fill="#FF5652"/>
<path d="M79.6718 57.1723C79.6999 57.5994 79.9528 57.931 80.2338 57.9141C80.5148 57.8972 80.7115 57.5319 80.6778 57.0992C80.6441 56.6665 80.4024 56.3405 80.1158 56.363C79.8292 56.3855 79.6381 56.762 79.6718 57.1723Z" fill="#263238"/>
<path d="M84.5691 56.4698C84.6029 56.9025 84.8501 57.2341 85.1311 57.2116C85.4121 57.1892 85.6088 56.8295 85.5751 56.3967C85.5414 55.964 85.2941 55.638 85.0131 55.6605C84.7321 55.683 84.541 56.0427 84.5691 56.4698Z" fill="#263238"/>
<path d="M72.6964 58.2232C72.6964 58.2232 69.8245 54.3735 72.1962 51.8783C73.6799 50.3215 77.6701 49.3043 80.4295 49.1863C80.3677 49.8382 80.4295 55.5481 72.6964 58.2232Z" fill="#263238"/>
<path d="M85.0733 51.8894C83.3089 51.7112 81.6531 50.9544 80.3637 49.737L80.1445 49.5065C81.2514 49.4608 82.3599 49.54 83.4491 49.7426C84.0501 50.39 84.5796 51.1004 85.0283 51.8613L85.0733 51.8894Z" fill="#263238"/>
<path opacity="0.2" d="M81.1721 70.5198C79.9507 70.1484 78.8671 69.4227 78.0586 68.4348C79.0266 68.9178 80.0773 69.2134 81.1552 69.3059C81.1356 69.7105 81.1413 70.1159 81.1721 70.5198Z" fill="black"/>
<path opacity="0.2" d="M67.6869 97.0181L66.9844 93.3932V88.1891C66.9844 88.1891 67.7937 93.6798 67.6869 97.0181Z" fill="black"/>
<path d="M170.966 80.1817L130 82.5007L131.785 114.029L172.751 111.71L170.966 80.1817Z" fill="#1427C8"/>
<path opacity="0.3" d="M170.966 80.1817L130 82.5007L131.785 114.029L172.751 111.71L170.966 80.1817Z" fill="black"/>
<path d="M156.079 81.0273L115.113 83.3464L116.898 114.875L157.864 112.556L156.079 81.0273Z" fill="#1427C8"/>
<path opacity="0.3" d="M156.079 81.0273L115.113 83.3464L116.898 114.875L157.864 112.556L156.079 81.0273Z" fill="white"/>
<path opacity="0.3" d="M161.147 83.7519L152.402 84.2766L152.579 87.2271L161.324 86.7024L161.147 83.7519Z" fill="black"/>
<path opacity="0.5" d="M126.399 86.6529L117.668 87.1471L117.938 91.9165L126.669 91.4222L126.399 86.6529Z" fill="white"/>
<path opacity="0.3" d="M129.45 99.09L116.051 99.8485L116.261 103.569L129.66 102.81L129.45 99.09Z" fill="black"/>
<path d="M182.807 54.1937L180.559 57.0599C181.181 57.4946 181.897 57.7775 182.649 57.886L182.807 54.1937Z" fill="#A02724"/>
<path d="M221.605 229.976L215.075 229.605L213.749 224.036L213.024 220.984L212.754 219.86L217.778 219.517L218.138 219.489L219.206 222.721L221.605 229.976Z" fill="#B55B52"/>
<path d="M184.053 230.892C184.177 231.336 177.989 230.544 177.989 230.544L177.77 225.345L177.602 221.332V221.113H177.652L183.935 221.737C183.935 221.737 183.935 223.423 183.935 225.339C183.947 227.801 183.98 230.65 184.053 230.892Z" fill="#B55B52"/>
<path d="M197.156 69.2665C197.156 69.2665 188.333 71.655 188.985 69.924C189.313 68.8764 189.445 67.7769 189.373 66.6813C189.373 65.9619 189.283 65.4505 189.283 65.4505C186.091 65.636 183.944 63.3261 182.988 60.4824C181.758 56.835 182.207 52.7605 183.702 49.2986C183.82 49.0176 184.157 47.8262 184.455 47.6801L187.917 46.084C187.917 46.084 191.289 48.2926 193.043 49.6639C194.796 51.0352 196.207 57.4083 196.207 62.3651C196.207 67.322 197.156 69.2665 197.156 69.2665Z" fill="#B55B52"/>
<path d="M182.543 53.1427C182.387 53.1853 182.249 53.2763 182.148 53.4025C182.047 53.5287 181.989 53.6837 181.981 53.8452C181.958 53.9952 181.981 54.1487 182.048 54.2852C182.114 54.4217 182.22 54.5348 182.352 54.6095L182.543 53.1427Z" fill="#263238"/>
<path d="M182.539 50.2877C182.906 50.2795 183.268 50.3791 183.579 50.5743" stroke="#263238" stroke-width="0.562" stroke-linecap="round" stroke-linejoin="round"/>
<path d="M185.612 59.409C185.612 59.409 188.175 63.4105 192.255 64.3265C196.335 65.2426 197.622 63.8264 198.167 61.5165C198.64 59.3387 199.686 57.3266 201.197 55.6886C202.607 54.233 201.759 50.2822 199.966 47.0338C199.966 47.0338 201.888 45.4209 198.791 43.8697C195.695 42.3186 194.554 44.8982 191.867 43.392C189.181 41.8859 192.767 41.3857 190.232 46.084C187.697 50.7823 186.298 47.3654 185.921 49.456C185.545 51.5467 183.583 55.1772 185.612 59.409Z" fill="#263238"/>
<path d="M185.92 50.4283C185.667 50.344 177.54 47.4047 177.462 46.0728C177.383 44.7408 183.762 47.163 184.003 47.2586L185.65 49.8606L185.92 50.4283Z" fill="#1427C8"/>
<path d="M202.318 53.6485C202.239 53.8902 201.756 55.4919 201.548 55.4919L200.868 55.4525C200.235 55.4001 199.605 55.327 198.979 55.2334C198.288 55.1266 197.608 54.9917 196.939 54.8343H196.911C196.231 54.6714 195.562 54.4915 194.911 54.2723C193.31 53.7892 191.74 53.2131 190.207 52.547C189.341 52.1705 188.577 51.8052 187.959 51.4904C186.694 50.861 185.941 50.417 185.941 50.417L185.829 50.2316L185.368 49.5066L184.384 47.9498L184.047 47.4272V47.3878C184.031 47.3404 184.031 47.2891 184.047 47.2417C184.081 46.646 185.3 44.9937 185.519 44.7127C186.422 43.5063 187.572 42.5062 188.891 41.7791C190.701 40.7787 192.741 41.2171 194.663 41.5543C195.299 41.6863 195.919 41.886 196.512 42.15L196.889 42.313L196.962 42.3467C197.029 42.386 197.102 42.4141 197.17 42.4479L197.293 42.5097C198.722 43.1785 200.021 44.0936 201.132 45.2129C203.661 48.051 202.632 52.7325 202.318 53.6485Z" fill="#1427C8"/>
<path d="M199.572 72.2845C199.572 72.2845 199.167 69.4745 198.285 68.9125C197.402 68.3505 188.635 68.4348 187.269 69.3958C185.904 70.3568 186.145 73.4984 186.145 73.4984L199.572 72.2845Z" fill="#1427C8"/>
<path d="M184.007 54.9692C184.007 54.9692 185.502 53.036 187.104 54.233C188.706 55.4301 187.436 58.2682 185.553 59.0662C185.553 59.0662 183.119 59.8586 182.805 57.3802C182.49 54.9018 184.007 54.9692 184.007 54.9692Z" fill="#B55B52"/>
<path d="M178.008 122.252C178.008 122.252 174.664 154.247 173.731 168.96C172.798 183.673 176.226 221.299 176.226 221.299H184.359C184.359 221.299 185.292 183.92 186.697 172.708C188.102 161.496 192.766 146.294 192.766 146.294C192.766 146.294 195.576 170.353 198.386 180.166C201.196 189.979 210.323 219.956 210.323 219.956L219.686 218.157C219.686 218.157 208.446 179.7 208.446 167.785C208.446 155.871 208.553 131.817 205.754 122.263L178.008 122.252Z" fill="#1427C8"/>
<path opacity="0.3" d="M219.669 218.168L210.312 219.972C210.312 219.972 201.191 189.995 198.381 180.183C196.835 174.788 195.295 165.071 194.222 157.422C193.323 151.178 192.761 146.311 192.761 146.311C192.761 146.311 188.09 161.485 186.685 172.725C185.28 183.965 184.353 221.316 184.353 221.316H176.226C176.226 221.316 172.798 183.695 173.731 168.982C174.664 154.269 178.008 122.269 178.008 122.269H205.726C208.536 131.823 208.423 155.904 208.423 167.791C208.423 179.677 219.669 218.168 219.669 218.168Z" fill="black"/>
<path opacity="0.3" d="M194.221 157.422C193.328 151.178 192.766 146.311 192.766 146.311L193.328 137.578L194.221 157.422Z" fill="black"/>
<path d="M175.348 219.736H185.093L184.615 223.749H175.73L175.348 219.736Z" fill="#263238"/>
<path d="M209.141 219.152L219.678 215.235L221.01 220.933L210.725 223.749L209.141 219.152Z" fill="#263238"/>
<path opacity="0.2" d="M217.778 219.517L213.023 220.984L213.748 224.036L219.205 222.721L217.778 219.517Z" fill="black"/>
<path opacity="0.2" d="M183.933 225.362H177.751L177.582 221.349L177.621 221.136L183.905 221.76C183.905 221.76 183.921 223.423 183.933 225.362Z" fill="black"/>
<path d="M174.779 232.887C174.818 232.994 170.89 230.707 171.969 229.639C173.048 228.571 174.779 232.887 174.779 232.887Z" stroke="#1427C8" stroke-width="0.562" stroke-miterlimit="10"/>
<path d="M175.342 232.724C175.313 232.837 173.15 228.841 174.622 228.487C176.095 228.133 175.342 232.724 175.342 232.724Z" stroke="#1427C8" stroke-width="0.562" stroke-miterlimit="10"/>
<path d="M214.166 230.459C214.166 230.459 212.879 226.317 211.631 226.997C210.384 227.677 214.166 230.459 214.166 230.459Z" stroke="#1427C8" stroke-width="0.562" stroke-miterlimit="10"/>
<path d="M213.82 230.819C213.82 230.819 210.914 227.61 210.065 228.734C209.217 229.858 213.82 230.819 213.82 230.819Z" stroke="#1427C8" stroke-width="0.562" stroke-miterlimit="10"/>
<path d="M221.844 229.594H214.864C214.864 229.594 210.828 232.022 209.058 232.246C207.288 232.471 206.248 232.578 206.299 233.848C206.349 235.118 207.423 235.231 211.048 235.174C214.672 235.118 221.866 235.562 222.647 234.843C223.428 234.124 222.934 232.769 221.844 229.594Z" fill="#263238"/>
<path d="M184.049 230.459L177.305 230.51C177.305 230.51 173.269 232.938 171.505 233.163C169.74 233.387 168.695 233.494 168.74 234.764C168.785 236.034 169.864 236.147 173.494 236.091C177.125 236.034 183.526 236.557 184.307 235.838C185.088 235.118 184.656 233.938 184.049 230.459Z" fill="#263238"/>
<path opacity="0.3" d="M184.003 47.2586C184.178 48.1522 184.357 48.8378 185.835 50.3946C183.958 49.6977 177.529 47.2136 177.462 46.0728C177.394 44.9319 182.385 46.646 184.003 47.2586Z" fill="black"/>
<path opacity="0.3" d="M184 47.399C183.984 47.3516 183.984 47.3003 184 47.2529C184 47.2529 184 47.3147 184 47.4328V47.399Z" fill="black"/>
<path opacity="0.3" d="M185.916 50.4282L185.742 50.3608C185.751 50.3372 185.762 50.3146 185.776 50.2933L185.916 50.4282Z" fill="black"/>
<path d="M202.318 53.6485C202.239 53.8902 201.756 55.4919 201.548 55.4919L200.868 55.4525C200.235 55.4001 199.605 55.327 198.979 55.2334C198.288 55.1266 197.608 54.9917 196.939 54.8343H196.911C196.231 54.6714 195.562 54.4915 194.911 54.2723C193.31 53.7892 191.74 53.2131 190.207 52.547C189.341 52.1705 188.577 51.8052 187.959 51.4904C186.694 50.861 185.941 50.417 185.941 50.417L185.829 50.2316L185.368 49.5066L184.384 47.9498L184.047 47.4272V47.3878C184.031 47.3404 184.031 47.2891 184.047 47.2417C184.081 46.646 185.3 44.9937 185.519 44.7127C186.422 43.5063 187.572 42.5062 188.891 41.7791C190.701 40.7787 192.741 41.2171 194.663 41.5543C195.299 41.6863 195.919 41.886 196.512 42.15L196.889 42.313L196.962 42.3467C197.029 42.386 197.102 42.4141 197.17 42.4479L197.293 42.5097C198.722 43.1785 200.021 44.0936 201.132 45.2129C203.661 48.051 202.632 52.7325 202.318 53.6485Z" fill="#1427C8"/>
<path opacity="0.2" d="M191.263 64.911C190.665 65.5335 190.035 66.1244 189.375 66.6813C189.375 65.962 189.285 65.4505 189.285 65.4505C189.963 65.3473 190.627 65.1663 191.263 64.911Z" fill="black"/>
<path d="M178.009 122.567V93.7809L172.754 91.6397C172.754 91.6397 173.76 76.2802 181.24 73.858C188.72 71.4358 202.034 70.4185 205.698 73.858C208.014 76.0442 208.323 79.551 208.407 82.5577C208.587 88.6835 206.985 94.6745 206.631 100.767C206.35 105.723 206.182 110.68 206.069 115.643C206.069 116.025 205.923 122.567 205.912 122.567H178.009Z" fill="#263238"/>
<path d="M180.891 94.7645C180.891 94.7645 177.002 107.612 173.158 108.415C169.314 109.219 156.186 102.054 156.186 102.054H150.324L149.492 96.9001C149.492 96.9001 154.949 94.8769 158.585 97.2991C158.585 97.2991 167.077 101.003 169.904 102.082L174.001 92.168L180.891 94.7645Z" fill="#B55B52"/>
</svg>
