<svg width="304" height="209" viewBox="0 0 304 209" fill="none" xmlns="http://www.w3.org/2000/svg">
<path d="M127.726 18.1616C129.088 17.8747 130.439 17.5721 131.78 17.2538C164.82 9.63937 202.603 5.22566 231.253 18.6546C259.34 31.8097 255.889 59.6928 239.462 85.2986C211.344 129.123 104.86 170.709 76.1236 126.149C66.8344 111.75 82.8459 86.3942 71.3264 69.4202C58.2105 50.0906 -2.48594 62.3144 9.64395 19.6094C16.3663 -4.07131 33.6142 -2.67833 52.1455 5.00654C62.7807 9.41243 72.9385 14.8983 83.9415 18.6233C97.3 23.1544 112.889 21.3389 127.726 18.1616Z" fill="#1427C8"/>
<path opacity="0.9" d="M127.726 18.1616C129.088 17.8747 130.439 17.5721 131.78 17.2538C164.82 9.63937 202.603 5.22566 231.253 18.6546C259.34 31.8097 255.889 59.6928 239.462 85.2986C211.344 129.123 104.86 170.709 76.1236 126.149C66.8344 111.75 82.8459 86.3942 71.3264 69.4202C58.2105 50.0906 -2.48594 62.3144 9.64395 19.6094C16.3663 -4.07131 33.6142 -2.67833 52.1455 5.00654C62.7807 9.41243 72.9385 14.8983 83.9415 18.6233C97.3 23.1544 112.889 21.3389 127.726 18.1616Z" fill="white"/>
<path d="M151.891 209C235.691 209 303.625 205.034 303.625 200.141C303.625 195.249 235.691 191.283 151.891 191.283C68.0915 191.283 0.158203 195.249 0.158203 200.141C0.158203 205.034 68.0915 209 151.891 209Z" fill="#F5F5F5"/>
<path d="M54.9375 139.453H155.451V191.345C155.451 192.01 155.32 192.668 155.066 193.283C154.811 193.897 154.438 194.455 153.968 194.925C153.498 195.396 152.94 195.769 152.326 196.023C151.711 196.277 151.053 196.408 150.388 196.408H60.0008C59.3358 196.408 58.6774 196.277 58.0631 196.023C57.4488 195.769 56.8907 195.396 56.4205 194.925C55.9503 194.455 55.5774 193.897 55.3229 193.283C55.0685 192.668 54.9375 192.01 54.9375 191.345V139.453Z" fill="#1427C8"/>
<path d="M54.9376 139.453H126.066L117.317 128.254C116.354 127.025 113.975 126.032 111.995 126.032H48.0275C46.0554 126.032 45.2259 127.025 46.1885 128.254L54.9376 139.453Z" fill="#1427C8"/>
<path opacity="0.2" d="M54.9376 139.453H126.066L117.317 128.254C116.354 127.025 113.975 126.032 111.995 126.032H48.0275C46.0554 126.032 45.2259 127.025 46.1885 128.254L54.9376 139.453Z" fill="black"/>
<path d="M155.452 139.453H84.332L93.0812 132.151C94.0438 131.369 96.4228 130.703 98.4027 130.703H162.362C164.342 130.703 165.164 131.353 164.201 132.151L155.452 139.453Z" fill="#1427C8"/>
<path opacity="0.2" d="M84.332 139.453H155.452V191.345C155.452 192.01 155.321 192.668 155.067 193.283C154.812 193.897 154.439 194.455 153.969 194.925C153.499 195.396 152.941 195.769 152.327 196.023C151.712 196.277 151.054 196.408 150.389 196.408H89.3953C88.7304 196.408 88.072 196.277 87.4577 196.023C86.8434 195.769 86.2852 195.396 85.815 194.925C85.3449 194.455 84.9719 193.897 84.7175 193.283C84.463 192.668 84.332 192.01 84.332 191.345V139.453Z" fill="white"/>
<path opacity="0.5" d="M63.7656 139.453V175.044L66.2229 173.103L67.9524 175.044L69.4549 172.884L70.9966 175.044L73.1409 173.424L75.5042 175.044V139.453H63.7656Z" fill="white"/>
</svg>
