<svg width="348" height="279" viewBox="0 0 348 279" fill="none" xmlns="http://www.w3.org/2000/svg">
<g clip-path="url(#clip0)">
<path d="M16.1514 265.695C15.7402 265.695 15.3663 265.582 14.9924 265.321C14.5438 265.022 14.2447 264.573 14.1699 264.013C14.0951 263.452 14.2073 262.966 14.5064 262.518C14.8055 262.069 15.2541 261.77 15.8149 261.696C16.3383 261.621 16.8618 261.733 17.3104 262.032C17.7591 262.331 18.0582 262.779 18.1329 263.34C18.2077 263.901 18.0955 264.386 17.7964 264.835C17.4974 265.283 17.0487 265.582 16.4879 265.657C16.3757 265.695 16.2636 265.695 16.1514 265.695ZM16.1514 262.256C16.0766 262.256 15.9645 262.256 15.8897 262.293C15.5158 262.368 15.1793 262.555 14.955 262.891C14.7307 263.19 14.6559 263.602 14.7307 263.975C14.8055 264.349 14.9924 264.685 15.3289 264.91C15.628 265.134 16.0393 265.209 16.4131 265.134C16.787 265.059 17.1235 264.872 17.3478 264.536C17.5721 264.237 17.6469 263.826 17.5721 263.452C17.4974 263.078 17.3104 262.742 16.9739 262.518C16.7122 262.368 16.4505 262.256 16.1514 262.256Z" fill="white"/>
<path d="M158.335 258.07C159.388 258.07 160.242 257.217 160.242 256.164C160.242 255.111 159.388 254.258 158.335 254.258C157.282 254.258 156.428 255.111 156.428 256.164C156.428 257.217 157.282 258.07 158.335 258.07Z" fill="#1427C8"/>
<path d="M21.3482 111.712C21.0491 111.712 20.75 111.675 20.4509 111.563C18.8432 111.077 17.9086 109.358 18.3946 107.713C18.6189 106.928 19.1797 106.293 19.8901 105.882C20.6004 105.471 21.4603 105.433 22.2455 105.657C23.0306 105.882 23.6662 106.442 24.0775 107.152C24.4513 107.863 24.5261 108.722 24.3018 109.507C23.8905 110.853 22.6567 111.712 21.3482 111.712ZM21.3482 106.106C20.9369 106.106 20.5257 106.218 20.1892 106.405C19.591 106.704 19.1797 107.265 18.9554 107.9C18.5441 109.208 19.2919 110.628 20.6378 111.039C21.9464 111.451 23.3671 110.703 23.7784 109.358C23.9653 108.722 23.9279 108.049 23.5914 107.451C23.2923 106.853 22.7315 106.442 22.0959 106.218C21.8342 106.143 21.5725 106.106 21.3482 106.106Z" fill="white"/>
<path d="M140.613 127.335C140.464 127.335 140.277 127.297 140.127 127.26C139.716 127.11 139.342 126.849 139.155 126.438C138.931 126.026 138.894 125.578 139.043 125.167C139.155 124.756 139.454 124.382 139.866 124.195C140.277 123.971 140.726 123.933 141.137 124.083C142.034 124.345 142.52 125.279 142.258 126.176C142.109 126.587 141.847 126.961 141.436 127.148C141.174 127.26 140.875 127.335 140.613 127.335ZM140.613 124.531C140.426 124.531 140.239 124.569 140.09 124.681C139.828 124.83 139.641 125.055 139.529 125.354C139.454 125.653 139.454 125.952 139.604 126.213C139.753 126.475 139.978 126.662 140.277 126.774C140.576 126.849 140.875 126.849 141.137 126.699C141.398 126.55 141.585 126.325 141.698 126.026C141.885 125.428 141.548 124.83 140.95 124.644C140.838 124.569 140.726 124.531 140.613 124.531Z" fill="white"/>
<path d="M112.685 40.7381C113.552 40.7381 114.255 40.0354 114.255 39.1684C114.255 38.3015 113.552 37.5987 112.685 37.5987C111.818 37.5987 111.115 38.3015 111.115 39.1684C111.115 40.0354 111.818 40.7381 112.685 40.7381Z" fill="#1427C8"/>
<path d="M3.32746 190.46C5.16516 190.46 6.65492 188.971 6.65492 187.134C6.65492 185.297 5.16516 183.807 3.32746 183.807C1.48975 183.807 0 185.297 0 187.134C0 188.971 1.48975 190.46 3.32746 190.46Z" fill="#1427C8"/>
<path d="M267.543 14.5013C268.844 14.5013 269.898 13.4471 269.898 12.1467C269.898 10.8463 268.844 9.79208 267.543 9.79208C266.242 9.79208 265.187 10.8463 265.187 12.1467C265.187 13.4471 266.242 14.5013 267.543 14.5013Z" fill="#1427C8"/>
<path d="M345.645 146.994C346.946 146.994 348 145.939 348 144.639C348 143.339 346.946 142.284 345.645 142.284C344.344 142.284 343.289 143.339 343.289 144.639C343.289 145.939 344.344 146.994 345.645 146.994Z" fill="#1427C8"/>
<path d="M13.9829 17.9771C13.9081 17.9771 13.8333 17.9397 13.7959 17.9023L8.22523 12.3709C8.11307 12.2588 8.11307 12.0719 8.22523 11.9598L13.7585 6.42839C13.8707 6.31627 14.0576 6.31627 14.1698 6.42839L19.7031 11.9598C19.8153 12.0719 19.8153 12.2588 19.7031 12.3709L14.1698 17.9023C14.1324 17.9397 14.0576 17.9771 13.9829 17.9771ZM8.82343 12.1467L13.9455 17.267L19.0675 12.1467L13.9829 7.02638L8.82343 12.1467Z" fill="white"/>
<path d="M72.4187 220.845C72.344 220.845 72.2692 220.808 72.2318 220.771L69.2034 217.743C69.1661 217.706 69.1287 217.631 69.1287 217.556C69.1287 217.482 69.1661 217.407 69.2034 217.37L72.2318 214.342C72.344 214.23 72.5309 214.23 72.6431 214.342L75.6714 217.37C75.7088 217.407 75.7462 217.482 75.7462 217.556C75.7462 217.631 75.7088 217.706 75.6714 217.743L72.6431 220.771C72.5683 220.808 72.4935 220.845 72.4187 220.845ZM69.8016 217.519L72.4561 220.173L75.1106 217.519L72.4561 214.866L69.8016 217.519Z" fill="white"/>
<path d="M207.798 132.679C207.761 132.679 207.686 132.679 207.649 132.642L204.77 130.661C204.658 130.586 204.62 130.399 204.695 130.287L206.676 127.409C206.751 127.297 206.938 127.26 207.05 127.335L209.929 129.316C210.041 129.39 210.079 129.577 210.004 129.689L208.022 132.567C207.985 132.642 207.91 132.679 207.798 132.679ZM205.293 130.362L207.723 132.006L209.368 129.577L206.938 127.933L205.293 130.362Z" fill="white"/>
<path d="M147.605 68.8062C147.567 68.8062 147.493 68.8062 147.455 68.7688L143.642 66.1526C143.53 66.0779 143.492 65.891 143.567 65.7789L146.184 61.9667C146.259 61.8545 146.446 61.8172 146.558 61.8919L150.371 64.5081C150.446 64.5455 150.484 64.6202 150.484 64.695C150.484 64.7697 150.484 64.8445 150.446 64.9192L147.829 68.7314C147.754 68.7688 147.68 68.8062 147.605 68.8062ZM144.165 65.8536L147.53 68.1334L149.811 64.7697L146.446 62.4899L144.165 65.8536Z" fill="white"/>
<path d="M325.941 38.4956H325.904C325.829 38.4956 325.754 38.4209 325.717 38.3835L322.689 33.8238C322.651 33.7491 322.651 33.6743 322.651 33.5996C322.651 33.5248 322.726 33.4501 322.764 33.4127L327.325 30.3854C327.4 30.348 327.474 30.348 327.549 30.348C327.624 30.348 327.699 30.4227 327.736 30.4601L330.764 35.0198C330.839 35.1319 330.802 35.3188 330.69 35.3935L326.128 38.4209C326.054 38.4582 325.979 38.4956 325.941 38.4956ZM323.287 33.7117L326.016 37.8229L330.129 35.0945L327.4 30.9834L323.287 33.7117Z" fill="white"/>
<path d="M321.119 232.095H321.081C321.006 232.095 320.932 232.058 320.894 231.983L316.969 226.751C316.931 226.676 316.894 226.601 316.931 226.526C316.931 226.452 316.969 226.377 317.043 226.339L322.278 222.415C322.39 222.34 322.577 222.34 322.651 222.452L326.577 227.685C326.652 227.797 326.652 227.984 326.54 228.059L321.306 231.983C321.231 232.058 321.193 232.095 321.119 232.095ZM317.604 226.638L321.193 231.422L325.979 227.834L322.39 223.05L317.604 226.638Z" fill="white"/>
<path d="M302.5 63.0132C302.387 63.0132 302.275 62.9384 302.238 62.8637L298.574 54.5666C298.499 54.4171 298.574 54.2676 298.724 54.1928C298.873 54.1181 299.023 54.1928 299.097 54.3423L302.761 62.6395C302.836 62.789 302.761 62.9384 302.612 63.0132C302.574 63.0132 302.537 63.0132 302.5 63.0132Z" fill="white"/>
<path d="M188.02 75.0478C187.983 75.0478 187.946 75.0477 187.908 75.0104C187.759 74.9356 187.684 74.7861 187.759 74.6366L191.049 66.19C191.123 66.0405 191.273 65.9658 191.423 66.0405C191.572 66.1153 191.647 66.2648 191.572 66.4143L188.282 74.8609C188.245 75.0104 188.132 75.0478 188.02 75.0478Z" fill="white"/>
<path d="M189.665 271.824C189.553 271.824 189.404 271.749 189.404 271.6C189.366 271.45 189.479 271.301 189.628 271.263L198.451 269.32C198.601 269.283 198.751 269.395 198.788 269.544C198.825 269.694 198.713 269.843 198.564 269.881L189.74 271.824C189.703 271.824 189.703 271.824 189.665 271.824Z" fill="white"/>
<path d="M155.381 25.4147C155.344 25.4147 155.269 25.4147 155.232 25.3773C155.119 25.3025 155.045 25.1157 155.157 25.0036L160.017 17.3792C160.092 17.2671 160.279 17.1923 160.391 17.3044C160.503 17.3792 160.578 17.566 160.466 17.6782L155.605 25.3025C155.568 25.3399 155.493 25.4147 155.381 25.4147Z" fill="white"/>
<path d="M245.185 45.335C245.148 45.335 245.073 45.335 245.036 45.2976C244.924 45.2229 244.849 45.036 244.961 44.9239L249.821 37.2995C249.896 37.1874 250.083 37.1127 250.195 37.2248C250.307 37.2995 250.382 37.4864 250.27 37.5985L245.41 45.2229C245.372 45.2976 245.26 45.335 245.185 45.335Z" fill="white"/>
<path d="M80.1207 9.04459C80.0086 9.04459 79.8964 8.96985 79.859 8.85772L76.6811 0.373731C76.6437 0.224234 76.7185 0.0747359 76.8307 -1.29165e-05C76.9802 -0.0373873 77.1298 0.0373615 77.2045 0.149485L80.3824 8.63348C80.4198 8.78297 80.3451 8.93247 80.2329 9.00722C80.1955 9.04459 80.1581 9.04459 80.1207 9.04459Z" fill="white"/>
<path d="M136.463 246.372C136.388 246.372 136.314 246.335 136.276 246.297L129.696 240.093C129.584 239.981 129.584 239.794 129.696 239.682C129.808 239.57 129.995 239.57 130.107 239.682L136.688 245.886C136.8 245.998 136.8 246.185 136.688 246.297C136.613 246.335 136.538 246.372 136.463 246.372Z" fill="white"/>
<path d="M120.723 182.985C120.686 182.985 120.648 182.985 120.611 182.948C120.461 182.873 120.387 182.724 120.461 182.574L124.013 174.24C124.088 174.09 124.238 174.015 124.387 174.09C124.537 174.165 124.611 174.314 124.537 174.464L120.985 182.798C120.91 182.948 120.798 182.985 120.723 182.985Z" fill="white"/>
<path d="M204.919 231.198C204.77 231.198 204.658 231.123 204.658 230.974L202.9 222.079C202.863 221.929 202.975 221.78 203.125 221.742C203.274 221.705 203.424 221.817 203.461 221.967L205.218 230.862C205.256 231.011 205.144 231.161 204.994 231.198C204.957 231.198 204.957 231.198 204.919 231.198Z" fill="white"/>
<path d="M268.216 240.579C268.141 240.579 268.103 240.542 268.029 240.504C267.917 240.392 267.879 240.243 267.991 240.093L273.599 232.992C273.712 232.88 273.861 232.843 274.011 232.955C274.123 233.067 274.16 233.216 274.048 233.366L268.44 240.467C268.365 240.542 268.29 240.579 268.216 240.579Z" fill="white"/>
<path d="M316.184 274.403C316.109 274.403 316.034 274.366 315.959 274.291L310.389 267.152C310.276 267.04 310.314 266.853 310.426 266.741C310.538 266.629 310.725 266.666 310.837 266.779L316.408 273.917C316.52 274.029 316.483 274.216 316.37 274.328C316.296 274.403 316.258 274.403 316.184 274.403Z" fill="white"/>
<path d="M176.168 163.737C176.094 163.737 175.981 163.7 175.944 163.625L170.598 156.337C170.523 156.225 170.523 156.038 170.672 155.963C170.785 155.889 170.972 155.889 171.046 156.038L176.393 163.326C176.467 163.438 176.467 163.625 176.318 163.7C176.281 163.737 176.243 163.737 176.168 163.737Z" fill="white"/>
<path d="M23.2176 160.747C23.1802 160.747 23.1428 160.747 23.068 160.71C22.9185 160.635 22.8811 160.448 22.9558 160.336L27.2928 152.375C27.3675 152.226 27.5545 152.189 27.6666 152.263C27.8162 152.338 27.8536 152.525 27.7788 152.637L23.4419 160.598C23.4045 160.673 23.3297 160.747 23.2176 160.747Z" fill="white"/>
<path d="M28.9751 225.854C28.9003 225.854 28.8629 225.854 28.7881 225.779L21.5724 220.285C21.4602 220.173 21.4228 220.023 21.535 219.874C21.6472 219.762 21.7967 219.724 21.9463 219.836L29.162 225.368C29.2742 225.48 29.3115 225.629 29.1994 225.779C29.162 225.816 29.0872 225.854 28.9751 225.854Z" fill="white"/>
<path d="M3.32779 67.6103C3.21563 67.6103 3.06608 67.5356 3.06608 67.3861C3.0287 67.2366 3.14086 67.0871 3.29041 67.0497L12.1138 65.0315C12.2633 64.9941 12.4129 65.1062 12.4503 65.2557C12.4877 65.4052 12.3755 65.5547 12.2259 65.5921L3.40257 67.6103C3.36518 67.6103 3.32779 67.6103 3.32779 67.6103Z" fill="white"/>
<path d="M75.5596 69.778C75.4849 69.778 75.4101 69.7407 75.3727 69.7033L68.8673 63.4244C68.7552 63.3123 68.7552 63.1254 68.8673 63.0133C68.9795 62.9011 69.1664 62.9011 69.2786 63.0133L75.784 69.2922C75.8961 69.4043 75.8961 69.5912 75.784 69.7033C75.7092 69.7407 75.6344 69.778 75.5596 69.778Z" fill="white"/>
<path d="M101.431 133.501C101.357 133.501 101.282 133.464 101.207 133.389L95.599 126.288C95.4868 126.176 95.5242 125.989 95.6364 125.877C95.7485 125.765 95.9355 125.802 96.0476 125.914L101.656 133.015C101.768 133.128 101.73 133.314 101.618 133.427C101.544 133.501 101.506 133.501 101.431 133.501Z" fill="white"/>
<path d="M325.306 173.94C325.231 173.94 325.194 173.903 325.119 173.866L318.053 168.222C317.941 168.11 317.903 167.961 318.015 167.811C318.128 167.699 318.277 167.662 318.427 167.774L325.493 173.417C325.605 173.529 325.642 173.679 325.53 173.828C325.493 173.903 325.381 173.94 325.306 173.94Z" fill="white"/>
<path d="M337.831 100.836C337.719 100.836 337.644 100.799 337.606 100.687C337.532 100.537 337.569 100.388 337.719 100.313L345.533 95.7158C345.682 95.6411 345.832 95.6785 345.906 95.828C345.981 95.9775 345.944 96.127 345.794 96.2017L337.98 100.799C337.943 100.836 337.868 100.836 337.831 100.836Z" fill="white"/>
<path d="M122.481 257.958C114.667 257.921 99.0762 258.108 94.3655 258.108C94.1785 258.108 88.3835 258.07 87.1124 258.07C87.561 254.221 87.9723 250.334 88.4209 246.484C87.7105 246.522 87.0376 246.522 86.3272 246.559C86.7011 237.888 87.8601 207.241 88.0844 200.551C85.5047 197.225 73.2791 180.518 70.0638 175.772C68.6057 199.505 67.185 223.237 65.7269 247.007C65.1661 247.045 64.2688 247.082 63.1845 247.157C63.7454 247.643 64.3062 248.054 64.8296 248.428C65.2782 248.689 66.2503 249.25 68.3066 249.885C72.6809 251.268 74.1764 250.595 76.2701 251.492C77.8403 252.165 79.8592 253.735 81.4295 258.033C73.6156 257.995 58.0251 258.182 53.3143 258.182C53.1274 258.182 47.3324 258.145 46.0612 258.145C46.4351 254.669 45.7621 191.095 45.0518 159.888C50.4729 159.477 85.8786 156.711 86.8506 156.636C88.6826 159.626 90.8137 163.102 93.0943 166.989C105.881 188.554 107.264 194.011 107.862 198.346C107.862 198.346 107.937 198.794 107.974 199.206C108.872 208.474 107.114 219.462 107.114 219.462C106.628 223.275 106.068 227.162 105.544 231.049C104.796 236.169 104.049 241.252 103.264 246.223C104.198 247.157 105.096 247.904 105.918 248.428C106.367 248.689 107.339 249.25 109.395 249.885C113.769 251.268 115.265 250.595 117.359 251.492C118.891 252.09 120.948 253.66 122.481 257.958Z" fill="white"/>
<path d="M117.321 72.282C117.284 73.2163 117.209 74.2628 117.134 75.4588C116.947 78.1124 116.611 81.3266 116.013 84.9519C115.901 85.6994 115.751 86.4469 115.602 87.2317C115.34 88.5398 115.116 89.8106 114.891 90.9692C113.209 99.5653 111.863 104.686 107.563 108.647C105.283 110.74 101.656 112.31 94.3282 115.337C89.767 117.243 85.9161 118.589 83.1868 119.448C83.9346 126.998 84.6823 134.548 85.4301 142.097C85.9161 146.881 86.3647 151.665 86.8508 156.449C84.5702 156.524 73.354 157.271 66.1009 157.944C57.614 158.729 49.8375 159.364 45.0519 159.738C44.9397 159.738 44.4537 159.775 44.3415 159.775C43.4442 150.656 41.9488 134.884 40.6028 120.196C39.5186 108.386 38.5091 97.2481 38.0231 90.9318C37.9109 89.5116 37.7988 88.353 37.7614 87.456C37.724 86.7459 37.6492 85.8863 37.6118 84.8771C37.4997 82.4104 37.5371 79.1215 38.3596 75.384C38.5465 74.5992 38.7335 73.7769 38.9952 72.9547C39.6681 70.7496 40.528 68.8435 42.9208 64.9939C44.0424 63.2 45.4631 61.0323 47.3699 58.1918C47.9307 57.3696 48.4915 56.51 49.1645 55.5756C49.2766 55.3887 49.4262 55.2019 49.5384 55.015C51.3329 52.3988 53.3892 49.4088 55.7446 46.1199C56.3428 45.2976 56.941 44.4754 57.5392 43.6158C57.6514 43.6905 57.8383 43.7653 57.9879 43.8774C59.7077 44.8491 63.9324 47.3532 66.3626 48.8482C66.6617 49.0351 66.9234 49.1846 67.1851 49.3341C67.4468 49.4836 67.6338 49.6331 67.7833 49.7078C67.6338 49.9321 67.5216 50.1563 67.372 50.4179C66.5869 51.8008 65.6522 53.3331 64.7176 54.9402C64.6054 55.1271 64.4932 55.314 64.3811 55.5008C62.7734 58.2292 61.1284 61.0323 59.8198 63.2374C59.5207 63.798 59.1469 64.3586 58.8104 64.9192C56.9036 68.1708 54.6604 72.0203 52.7163 75.3093C52.2676 76.0568 51.819 76.8043 51.4077 77.5144C51.7442 79.9437 52.0807 82.3731 52.4172 84.8024C52.7163 86.8206 52.978 88.8388 53.2771 90.857C53.6509 93.5854 54.0248 96.3137 54.4361 99.0794C54.8847 99.1542 58.6982 99.9764 62.923 100.873C65.6522 101.434 68.5311 102.069 70.8117 102.555C73.0549 103.041 74.7373 103.415 75.0738 103.49C77.8031 102.742 80.5323 102.032 83.2616 101.322C88.8323 99.8269 94.403 98.3319 99.9363 96.8743C100.46 94.8935 100.946 92.9126 101.432 90.857C101.918 88.8762 102.366 86.858 102.815 84.8024C103.039 83.8307 103.226 82.8589 103.451 81.8872C103.787 80.2427 104.124 78.5982 104.46 76.9911C104.572 76.4305 104.684 75.8699 104.797 75.3093C105.021 74.1507 105.245 72.9921 105.47 71.8708C105.47 71.8708 105.47 71.8708 105.47 71.8335C105.507 71.8335 105.544 71.8335 105.582 71.8335C107.302 71.8708 109.021 71.9082 110.741 71.983C111.003 71.983 111.265 71.983 111.526 72.0203C112.835 72.0577 113.695 72.0951 115.377 72.1325C115.676 72.2446 117.097 72.282 117.321 72.282Z" fill="#FFA2B8"/>
<path d="M69.8769 45.8957C69.7648 45.8957 69.69 45.8583 69.6526 45.7462C69.5778 45.5967 69.6152 45.4472 69.7274 45.3724L70.7742 44.6997C71.2229 44.4381 71.6341 44.1765 72.008 43.9522C72.5314 43.6158 73.0174 43.3168 73.4661 43.0552C73.7278 42.9057 74.1391 42.6441 74.2886 42.1956C74.4382 41.6724 74.1391 41.1491 74.1391 41.1491C73.9147 40.738 73.5035 40.5885 73.167 40.439C72.7557 40.2895 72.3445 40.1026 72.2323 39.6168C72.1575 39.3552 72.2323 39.1309 72.3071 38.944C72.3819 38.7572 72.4192 38.5703 72.3819 38.2713C72.3445 38.1218 72.3071 37.8602 72.1201 37.6359C71.9332 37.4117 71.7463 37.3369 71.4846 37.2622C71.2229 37.1874 70.9238 37.1127 70.662 36.7763C70.4377 36.4773 70.4003 36.2157 70.3629 35.9915C70.3629 35.8046 70.3256 35.6177 70.176 35.3561C70.0265 35.1692 69.9517 35.0945 69.7648 35.0197C69.6152 34.945 69.4283 34.8328 69.2039 34.6086C68.7179 34.1601 68.5684 33.749 68.4188 33.45C68.344 33.2257 68.2693 33.1136 68.1945 33.0389C67.6337 32.6651 65.7269 34.0854 64.6427 35.1692C62.3247 37.4491 60.1189 40.2148 58.0999 43.3168C57.9878 43.4663 57.8756 43.6532 57.7635 43.8401L57.7261 43.8775C57.6513 43.9896 57.4644 44.027 57.3522 43.9522C57.24 43.8775 57.2027 43.6906 57.2774 43.5785C57.3896 43.3916 57.5018 43.2047 57.6139 43.0552C59.6328 39.9158 61.8761 37.1127 64.2314 34.7955C64.7549 34.3096 67.3346 31.8429 68.4936 32.5904C68.7553 32.7399 68.8301 33.0015 68.9422 33.2631C69.0544 33.5621 69.1666 33.8611 69.5778 34.2349C69.7648 34.4217 69.9143 34.4965 70.0265 34.5712C70.2134 34.6834 70.4003 34.7955 70.6247 35.0945C70.8864 35.4682 70.8864 35.7672 70.9238 35.9915C70.9238 36.1783 70.9611 36.2905 71.0733 36.4773C71.2229 36.6642 71.4098 36.7016 71.6341 36.7763C71.8958 36.8511 72.2697 36.9632 72.5688 37.3369C72.8305 37.6733 72.9053 38.047 72.9053 38.2339C72.9801 38.6824 72.8679 38.9814 72.7931 39.2057C72.7557 39.3552 72.7183 39.4299 72.7557 39.542C72.7931 39.7289 73.0174 39.841 73.3539 39.9905C73.7652 40.14 74.2886 40.3643 74.6251 40.9249C74.6251 40.9249 75.0737 41.635 74.8494 42.4199C74.6625 43.0926 74.0643 43.429 73.7652 43.6158C73.3165 43.8775 72.8679 44.1765 72.3071 44.5128C71.9332 44.7371 71.522 44.9987 71.0733 45.2603L70.0265 45.9331C69.9517 45.8583 69.9143 45.8957 69.8769 45.8957Z" fill="white"/>
<path d="M67.1475 49.7452C67.0354 49.7452 66.9606 49.7079 66.8858 49.5957C66.811 49.4462 66.8858 49.2968 66.998 49.222C67.2597 49.1099 67.6709 48.8856 68.157 48.624C70.1385 47.6523 71.7088 47.0169 73.0173 46.531C74.6997 45.8583 75.8213 45.4098 75.8213 44.9613C75.8213 44.6249 75.3353 44.2138 74.9614 44.0643C74.438 43.8027 73.8024 43.9896 73.279 44.1017C72.9051 44.1765 72.5687 44.326 72.2322 44.5128C72.0826 44.5876 71.9331 44.5502 71.8583 44.4007C71.7835 44.2512 71.8209 44.1017 71.9705 44.027C72.3443 43.8401 72.7182 43.6906 73.1295 43.5785C73.7277 43.429 74.4754 43.2421 75.1858 43.5785C75.597 43.7653 76.3822 44.2886 76.3822 44.9987C76.3822 45.8583 75.3353 46.2694 73.2416 47.0917C71.9705 47.6149 70.3628 48.2129 68.4187 49.1846C67.9327 49.4463 67.5214 49.6331 67.2597 49.7452C67.2597 49.7079 67.2223 49.7452 67.1475 49.7452Z" fill="white"/>
<path d="M68.6804 48.6988L66.9232 49.4463L57.5391 43.6906C57.6512 43.5037 57.7634 43.3542 57.8756 43.1674L68.6804 48.6988Z" fill="white"/>
<path d="M116.985 72.5436C116.835 72.5436 116.686 72.4315 116.686 72.282C116.686 71.684 116.686 71.1234 116.686 70.5628C116.648 69.6658 116.611 68.8062 116.536 67.9466C116.386 66.4516 116.162 64.994 115.863 63.6112C115.863 63.5364 115.452 61.6677 114.816 60.4717C114.517 59.9111 114.218 59.5747 113.956 59.5374C113.844 59.5374 113.358 59.5747 112.909 59.8364C112.76 59.9111 112.685 59.9858 112.573 60.0606C112.461 60.1727 112.311 60.2848 112.087 60.3596C111.713 60.4717 111.451 60.3596 111.227 60.2848C111.078 60.2101 110.928 60.1727 110.741 60.1727C110.479 60.2101 110.33 60.3596 110.105 60.5465C109.881 60.7707 109.582 61.0697 109.059 61.0697C108.834 61.0697 108.722 61.0323 108.61 60.995C108.498 60.9576 108.423 60.9202 108.199 60.9202C107.638 60.8828 107.301 61.0323 107.077 61.1445C106.778 61.294 106.666 61.5182 106.554 61.7424C106.404 62.0041 106.255 62.3031 105.843 62.5273C105.544 62.6768 105.357 62.6768 105.17 62.6768C104.983 62.6768 104.834 62.6768 104.572 62.8263C104.385 62.9011 103.899 63.1253 103.75 63.5364C103.563 64.0223 103.862 64.5829 104.011 64.9193C104.161 65.2183 104.31 65.5546 104.497 65.891L104.535 66.0031C104.61 66.19 104.722 66.3769 104.796 66.6011C104.796 66.6011 104.796 66.6011 104.796 66.6385C105.096 67.3112 105.432 68.0587 105.806 68.9183C105.881 69.0678 105.806 69.2173 105.656 69.2921C105.507 69.3668 105.357 69.2921 105.282 69.1426C104.909 68.283 104.61 67.5355 104.31 66.8627V66.8254C104.198 66.6011 104.123 66.4142 104.049 66.2274L104.011 66.1152C103.862 65.7789 103.712 65.4425 103.563 65.1435C103.376 64.7324 103.002 64.0223 103.264 63.2748C103.488 62.6768 104.123 62.3778 104.348 62.2657C104.759 62.0788 104.983 62.0788 105.208 62.0788C105.357 62.0788 105.469 62.0788 105.656 61.9667C105.918 61.8172 106.03 61.6303 106.142 61.4061C106.292 61.1445 106.441 60.8081 106.89 60.5838C107.264 60.3596 107.75 60.2848 108.311 60.2848C108.61 60.2848 108.76 60.3596 108.872 60.397C108.946 60.4343 108.984 60.4343 109.096 60.4343C109.395 60.4343 109.545 60.2475 109.769 60.0606C109.993 59.8363 110.255 59.5747 110.741 59.5374C111.078 59.5 111.302 59.6121 111.489 59.6868C111.676 59.7616 111.788 59.799 111.975 59.7616C112.087 59.7242 112.124 59.6869 112.237 59.6121C112.349 59.5374 112.461 59.4252 112.648 59.3131C113.171 59.0141 113.769 58.9394 113.994 58.9394C114.48 58.9394 114.891 59.3505 115.34 60.1727C116.013 61.4434 116.424 63.3495 116.461 63.4617C116.76 64.8819 117.022 66.3769 117.134 67.8718C117.209 68.7315 117.284 69.6284 117.284 70.5254C117.284 71.086 117.321 71.6467 117.284 72.2446C117.246 72.4315 117.134 72.5436 116.985 72.5436Z" fill="white"/>
<path d="M105.656 72.2821C105.582 72.2821 105.507 72.2447 105.47 72.2073L104.871 71.572C104.722 71.3851 104.535 71.1982 104.348 70.974C103.338 69.778 102.03 68.3204 101.245 67.0123C100.534 65.8163 100.347 64.9941 100.684 64.3961C100.983 63.9476 101.581 63.7233 102.067 63.7607C102.441 63.7981 102.815 63.9476 104.011 65.5173L104.311 65.891C104.46 66.0779 104.572 66.2648 104.684 66.3769L104.797 66.5264C104.834 66.5638 104.871 66.6385 104.871 66.7133C104.871 66.8628 104.759 67.0123 104.572 67.0123C104.497 67.0123 104.423 66.9749 104.385 66.9375L104.348 66.9001L104.236 66.7133C104.124 66.5638 104.011 66.4143 103.862 66.2274L103.563 65.8537C102.516 64.5456 102.179 64.3213 101.993 64.3213C101.693 64.2839 101.32 64.4334 101.133 64.6951C100.983 64.9567 100.946 65.5173 101.693 66.7133C102.441 67.9466 103.712 69.4042 104.722 70.6002C104.909 70.8245 105.096 71.0113 105.245 71.1608L105.843 71.7962C105.956 71.9083 105.956 72.0952 105.843 72.2073C105.806 72.2447 105.731 72.2821 105.656 72.2821Z" fill="white"/>
<path d="M116.985 72.2447L111.601 72.1326L105.507 72.0205C105.507 72.0205 105.507 72.0205 105.507 71.9831C105.544 71.9831 105.582 71.9831 105.619 71.9831C105.507 71.871 105.395 71.7215 105.245 71.572C107.75 71.3477 114.368 70.7871 116.947 70.5629C116.985 71.1235 116.985 71.6841 116.985 72.2447Z" fill="white"/>
<path d="M78.5508 84.9145C78.5134 84.9519 78.4386 84.9519 78.4012 84.9893C78.3638 84.9893 78.3638 85.0267 78.3264 85.0267C78.1395 85.1014 77.9526 85.1762 77.7656 85.2509C77.5039 85.363 77.2422 85.4752 76.9805 85.5873C76.7562 86.3721 76.4945 87.1944 76.2701 87.9792C76.0458 88.7267 75.8589 89.4742 75.6346 90.1843C75.4102 90.1843 74.4382 90.0722 74.2512 90.0348C74.5503 89.0631 74.2886 88.054 73.5783 87.4186C72.6436 86.5964 71.2603 86.8954 70.5125 87.3439C69.4283 88.0166 68.9796 89.3247 69.1292 90.446C69.1666 90.6328 69.204 90.8197 69.2414 90.9692C69.6152 92.1278 70.5873 92.7258 70.7368 92.8005C70.6995 92.8753 70.6247 92.9127 70.5873 92.9874C69.9143 93.7723 69.1666 94.5571 68.4188 95.342C67.4094 96.3885 66.4373 97.3976 65.4652 98.3693C64.9044 98.2946 64.3436 98.1825 63.7828 98.1077C63.5211 98.0703 63.2594 98.033 62.9977 97.9956C61.9882 97.8461 60.9414 97.6592 59.9319 97.5097C59.8572 97.5097 59.7824 97.4723 59.7076 97.4723C59.5955 95.0056 59.6328 92.8753 59.745 91.044C59.8572 89.2126 60.0815 87.6803 60.3058 86.5216C60.3806 85.9984 60.4927 85.5125 60.6423 85.0267C60.7918 84.4661 61.0162 83.9428 61.3527 83.3448C63.2968 80.0185 67.0355 79.1589 67.4842 79.0468C67.6337 79.0094 68.4188 78.8599 69.5778 78.8599C71.335 78.8599 73.8774 79.2336 76.0458 81.0276C76.6814 81.5509 77.9152 82.5973 78.4012 84.3913C78.476 84.5408 78.5134 84.765 78.5508 84.9145Z" fill="white"/>
<path d="M71.7089 93.7349C71.6715 93.7349 71.6715 93.7349 71.6341 93.7349C71.3724 93.6602 71.1107 93.5855 70.8864 93.4733C70.6246 93.3612 70.3255 93.1743 70.1012 93.0248C69.9891 92.9501 69.9517 92.7632 70.0265 92.6511C70.1012 92.539 70.2882 92.5016 70.4003 92.5763C70.6246 92.7258 70.849 92.8753 71.1107 92.9875C71.335 93.0996 71.5593 93.1743 71.7836 93.2117C71.9332 93.2491 72.008 93.3986 71.9706 93.5481C71.9332 93.6602 71.821 93.7349 71.7089 93.7349Z" fill="white"/>
<path d="M70.8863 102.966C70.7368 102.966 70.5872 102.854 70.5872 102.667V99.7893C70.5872 99.6398 70.6994 99.5277 70.8863 99.5277C70.9611 99.5277 71.0359 99.5277 71.1106 99.5277C72.3444 99.5651 74.6624 99.3782 76.3822 97.7337C77.8777 96.2761 78.102 94.37 78.4011 91.9781C78.4385 91.6417 78.4759 91.3053 78.5133 90.9689C78.6628 89.0255 78.5133 87.0072 78.0647 85.0264C78.0647 85.0264 78.0647 85.0264 78.0647 84.989C78.0647 84.9143 78.0273 84.8395 78.0273 84.7274C77.9899 84.6153 77.9151 84.5032 77.8403 84.3537C77.8403 84.3537 77.616 83.9425 77.3917 83.6062C77.0178 83.0829 76.1953 82.1486 75.6345 81.7375C75.2606 81.4385 71.8958 78.8596 67.7458 79.7566C64.5679 80.4293 62.8855 82.7092 62.0256 84.5032C61.9134 84.69 61.8386 84.8769 61.8012 85.0264C61.5021 85.7365 61.3526 86.2971 61.2778 86.6709C61.0535 87.7921 60.8292 89.2497 60.6796 90.9689C60.4927 92.8003 60.3805 94.968 60.3057 97.3973V97.4347L60.231 100.275C60.231 100.425 60.0814 100.537 59.9319 100.537C59.7823 100.537 59.6702 100.387 59.6702 100.238L59.7449 97.36V97.3226C59.8197 94.8933 59.9693 92.7255 60.1188 90.8942C60.2684 89.1376 60.4927 87.68 60.7544 86.5214C60.8292 86.1476 61.0161 85.5123 61.3152 84.7648C61.39 84.5779 61.4647 84.391 61.5769 84.2042C62.4742 82.2981 64.3062 79.8314 67.671 79.1212C72.0827 78.1869 75.6345 80.9152 76.0457 81.2142C76.6066 81.6627 77.5038 82.6344 77.9151 83.2324C78.1768 83.6062 78.4011 84.0173 78.4011 84.0547C78.4759 84.2415 78.5507 84.3537 78.6255 84.4658V84.5032C78.6628 84.6153 78.6628 84.69 78.7002 84.8022V84.8395C79.1489 86.8578 79.2984 88.9133 79.1489 90.9316C79.1115 91.2679 79.0741 91.6417 79.0367 91.9781C78.7376 94.4821 78.4759 96.5004 76.8309 98.0701C75.0363 99.8267 72.6061 100.051 71.2602 100.051V102.63C71.148 102.854 71.0359 102.966 70.8863 102.966Z" fill="white"/>
<path d="M71.0737 99.5655C71.0737 99.715 71.0363 99.8645 71.0363 100.014C70.9615 100.836 70.9241 101.621 70.8867 102.369C70.5128 101.957 70.1764 101.584 69.8025 101.21C69.0921 100.425 68.3444 99.6028 67.634 98.818C68.307 99.117 69.1669 99.3786 70.1764 99.4907C70.4755 99.5281 70.7746 99.5655 71.0737 99.5655Z" fill="white"/>
<path d="M294.275 153.833C293.863 153.833 293.415 153.609 293.153 153.273C292.742 152.712 292.891 152.002 293.228 151.03C293.415 150.544 293.639 149.984 293.938 149.273L294.275 148.489C294.462 148.04 294.649 147.554 294.836 147.068C293.826 148.302 293.041 149.348 292.443 150.208C292.405 150.245 292.031 150.768 291.508 151.366C290.013 153.048 289.414 153.198 289.115 153.16C288.554 153.086 288.181 152.675 287.994 152.301C287.844 152.002 287.769 151.628 287.844 151.18C287.994 150.357 288.554 149.498 288.891 149.012C289.265 148.451 289.601 148.115 289.639 148.077C290.386 147.255 291.134 146.358 291.732 145.611C291.433 145.872 291.134 146.209 290.76 146.582C290.087 147.255 289.489 147.778 289.115 148.152C286.05 150.993 285.377 151.067 284.891 150.881C284.33 150.694 283.993 150.096 283.918 149.572C283.806 148.713 284.554 147.965 285.601 146.956C285.863 146.695 286.087 146.508 286.087 146.508C286.797 145.872 288.068 144.714 289.826 143.069C286.498 144.789 284.068 145.984 283.694 146.097C283.171 146.246 282.797 146.059 282.759 146.059C282.647 146.022 282.573 145.947 282.535 145.91C282.386 145.798 282.236 145.536 282.124 145.274C282.086 145.125 282.012 144.938 282.012 144.714C282.049 143.518 283.694 142.77 284.367 142.434C288.255 140.603 292.368 138.734 296.555 136.79L296.892 136.641C297.116 136.529 297.303 136.454 297.527 136.342L299.472 135.445C299.621 135.37 299.771 135.445 299.845 135.594C299.92 135.744 299.845 135.893 299.696 135.968L297.752 136.865C297.527 136.977 297.34 137.052 297.116 137.164L296.78 137.314C292.592 139.22 288.48 141.126 284.591 142.92C284.031 143.181 282.573 143.854 282.535 144.714C282.535 144.826 282.573 144.938 282.61 145.05C282.685 145.237 282.797 145.387 282.872 145.461C282.872 145.461 282.909 145.499 282.984 145.536C282.984 145.536 283.208 145.648 283.545 145.536C283.918 145.424 286.76 144.004 291.396 141.574C291.508 141.5 291.658 141.537 291.77 141.649C291.845 141.761 291.845 141.911 291.732 142.023C289.153 144.452 287.395 146.097 286.461 146.881C286.461 146.881 286.274 147.031 286.012 147.293C285.077 148.227 284.442 148.862 284.479 149.46C284.517 149.759 284.741 150.17 285.077 150.283C285.339 150.357 285.975 150.208 288.741 147.666C289.003 147.405 289.527 146.956 290.386 146.134C291.246 145.312 291.845 144.714 292.256 144.303C293.228 143.331 293.303 143.294 293.527 143.48C293.602 143.518 293.639 143.63 293.639 143.705C293.677 144.153 291.508 146.956 290.087 148.451C290.087 148.451 289.788 148.788 289.414 149.311C289.115 149.759 288.554 150.544 288.442 151.254C288.405 151.553 288.405 151.815 288.517 152.002C288.629 152.226 288.928 152.525 289.227 152.562C289.265 152.562 289.713 152.562 291.134 150.955C291.658 150.357 292.069 149.834 292.069 149.834C292.854 148.713 294.05 147.18 295.583 145.312C295.658 145.2 295.808 145.162 295.957 145.237C296.069 145.312 296.144 145.461 296.069 145.573C295.658 146.657 295.247 147.666 294.873 148.638L294.536 149.423C294.237 150.133 294.013 150.694 293.863 151.18C293.527 152.151 293.49 152.6 293.714 152.899C293.863 153.123 294.125 153.235 294.387 153.235C294.723 153.235 295.097 152.936 295.434 152.338C295.583 152.114 295.695 151.852 295.808 151.665L295.882 151.479C295.995 151.292 296.069 151.105 296.181 150.918C296.181 150.918 296.181 150.881 296.219 150.881C296.742 149.834 297.303 148.788 297.789 147.741C298.051 147.18 298.35 146.62 298.612 146.059C298.649 145.984 298.724 145.91 298.836 145.91C299.845 145.835 300.855 145.611 301.79 145.274C303.173 144.789 304.444 144.041 305.566 143.032C306.239 142.434 306.874 141.761 307.435 141.014C307.51 140.902 307.697 140.864 307.809 140.976C307.921 141.051 307.958 141.238 307.846 141.35C307.285 142.135 306.613 142.845 305.902 143.443C304.706 144.49 303.397 145.274 301.939 145.76C301.004 146.097 299.995 146.321 298.986 146.433C298.724 146.956 298.499 147.479 298.238 147.965C297.714 149.012 297.191 150.058 296.668 151.105L296.406 151.03L296.668 151.142C296.555 151.329 296.481 151.516 296.368 151.74L296.294 151.927C296.181 152.151 296.032 152.413 295.882 152.675C295.359 153.422 294.873 153.796 294.275 153.833C294.312 153.833 294.312 153.833 294.275 153.833Z" fill="white"/>
<path d="M292.218 150.021C292.816 149.161 293.863 147.778 295.733 145.499C295.284 146.657 294.873 147.704 294.536 148.563C294.087 149.647 293.751 150.469 293.527 151.105C292.779 151.105 292.031 151.142 291.283 151.142C291.807 150.544 292.218 150.021 292.218 150.021Z" fill="white"/>
<path d="M298.088 150.993C297.677 150.993 297.228 150.993 296.817 151.03C296.705 151.03 296.593 151.03 296.443 151.03H296.406C296.406 151.03 296.406 150.993 296.443 150.993C296.967 149.946 297.49 148.9 298.013 147.853C298.013 148.9 298.051 149.946 298.088 150.993Z" fill="white"/>
<path d="M307.398 95.3049C299.023 89.6987 291.433 87.9047 289.302 87.4562C287.657 87.1199 285.489 86.634 282.909 86.335V84.8026C280.404 84.8774 277.787 84.9148 275.17 84.9148C272.478 84.9148 269.823 84.8774 267.244 84.8026V87.6805C266.571 87.9047 265.898 88.129 265.187 88.3906C262.533 89.3997 258.346 91.3805 252.588 96.4635C245.11 103.079 239.353 111.114 237.259 114.142C235.614 110.778 233.969 107.339 232.324 103.826C231.09 101.173 229.894 98.5938 228.735 95.9776C228.772 96.9867 229.333 111.787 229.37 112.796C229.408 113.917 230.006 129.278 230.043 130.399C230.492 130.923 231.165 131.595 232.137 132.156C232.137 132.156 232.847 132.679 233.67 132.904C240.4 134.623 249.111 125.092 252.812 121.018C254.046 119.673 255.018 118.477 255.654 117.617C254.981 122.439 254.308 127.297 253.635 132.193C252.7 138.846 251.728 145.424 250.719 151.927C263.168 151.665 275.581 151.441 288.031 151.18C288.143 150.432 288.704 149.61 289.04 149.124C289.377 148.638 289.676 148.302 289.751 148.264C291.545 146.358 293.303 143.779 293.228 143.705C293.153 143.667 292.517 144.377 290.461 146.358C289.526 147.255 289.04 147.704 288.816 147.928C285.825 150.694 285.227 150.731 284.89 150.582C284.442 150.432 284.143 149.909 284.105 149.535C284.031 148.825 284.703 148.152 285.713 147.143C285.975 146.882 286.162 146.732 286.162 146.732C286.909 146.059 288.48 144.639 291.433 141.873C287.134 144.116 283.956 145.723 283.545 145.835C283.096 145.947 282.797 145.798 282.797 145.798C282.722 145.76 282.647 145.723 282.647 145.686C282.535 145.573 282.385 145.387 282.311 145.162C282.311 145.162 282.236 144.938 282.236 144.714C282.273 143.705 283.806 142.957 284.442 142.696C286.349 141.799 290.723 139.78 296.63 137.089C296.966 137.314 297.303 137.575 297.639 137.8C298.312 138.285 298.985 138.771 299.696 139.22C301.715 140.64 303.734 141.985 305.715 143.256C307.136 144.191 308.557 145.088 309.94 145.947C313.118 142.172 317.604 136.155 321.455 127.858C323.736 122.962 324.857 120.458 324.857 117.431C324.783 106.966 313.529 99.416 307.398 95.3049ZM304.07 125.653C301.864 128.269 299.658 130.736 297.49 133.09L297.153 122.775C297.041 118.851 296.892 114.441 296.78 110.516C299.023 111.637 301.303 112.796 303.584 113.992C305.939 115.225 308.257 116.421 310.575 117.655C308.519 120.271 306.351 122.925 304.07 125.653Z" fill="white"/>
<path d="M231.464 252.315C231.838 255.192 232.212 257.883 232.511 260.35C228.698 260.313 224.099 260.313 218.79 260.35C220.36 255.342 222.529 253.585 224.323 252.913C226.828 251.978 228.585 252.875 231.464 252.315Z" fill="white"/>
<path d="M253.896 260.425C252.55 260.462 250.681 260.462 248.438 260.462L246.793 258.369V260.462H246.681C242.007 260.462 238.605 260.388 237.259 260.35C236.474 260.35 235.614 260.35 234.679 260.35C234.642 257.547 234.567 254.52 234.492 251.193C235.988 250.371 237.633 249.026 239.353 246.858H252.363C252.887 251.38 253.41 255.903 253.896 260.425Z" fill="white"/>
<path d="M294.835 258.369L296.48 260.462C298.537 260.462 300.294 260.425 301.528 260.425C301.042 255.903 300.518 251.418 300.032 246.895C295.658 246.933 291.321 246.933 286.947 246.97C284.105 250.595 281.413 251.829 279.432 252.277C276.329 252.987 274.572 251.941 271.954 252.913C270.197 253.585 267.991 255.342 266.421 260.35C274.198 260.313 280.441 260.35 284.89 260.388C286.236 260.388 289.639 260.5 294.312 260.5C294.499 260.5 294.648 260.5 294.798 260.5V258.369H294.835Z" fill="white"/>
<path d="M269.711 85.1389C269.562 85.1389 269.45 85.0267 269.45 84.9146C269.375 84.5409 269.3 84.1671 269.225 83.7934C267.319 83.9429 265.599 83.5691 264.216 82.6348C260.739 80.3549 260.739 75.7205 260.739 74.1882C260.739 73.1417 260.888 70.4507 262.159 67.9093C262.197 67.8719 262.197 67.8345 262.234 67.7971C263.131 66.0032 264.44 64.6203 266.122 63.7607C266.571 63.5365 270.422 61.593 273.974 63.2748C276.441 64.4708 278.011 67.0123 279.096 71.5719L279.133 71.7588C279.17 71.9083 279.096 72.0578 278.946 72.0952C278.797 72.1326 278.647 72.0578 278.61 71.9083L278.572 71.6841C277.525 67.3113 276.067 64.8446 273.749 63.7607C270.459 62.191 266.795 64.0223 266.384 64.2092C264.814 65.0314 263.58 66.3395 262.72 68.0214C262.683 68.0588 262.683 68.0961 262.683 68.0961C261.486 70.5255 261.337 73.1417 261.337 74.1508C261.337 75.6084 261.337 79.9812 264.552 82.1115C265.898 82.9711 267.58 83.3449 269.45 83.158C269.599 83.158 269.711 83.2328 269.749 83.3823C269.824 83.8308 269.936 84.3166 270.011 84.7651C270.048 84.9146 269.936 85.0641 269.786 85.1015C269.749 85.1389 269.749 85.1389 269.711 85.1389Z" fill="white"/>
<path d="M277.525 78.1873C277.451 78.1873 277.413 78.1873 277.338 78.1873C277.189 78.1873 277.077 78.0378 277.077 77.8883C277.077 77.7388 277.226 77.6267 277.376 77.6267C277.75 77.6267 278.086 77.5893 278.423 77.4772C279.582 77.0287 280.815 75.4964 280.217 73.7398C279.956 72.9923 279.432 72.4317 278.722 72.0953C278.011 71.7589 277.226 71.7215 276.479 71.9832C276.067 72.1327 275.731 72.3569 275.693 72.3943C275.133 72.8428 274.908 73.4408 274.796 73.7771C274.759 73.9266 274.609 74.0014 274.46 73.964C274.31 73.9266 274.235 73.7771 274.273 73.6276C274.385 73.2539 274.647 72.5064 275.357 71.9458C275.619 71.6842 276.254 71.4599 276.292 71.4225C277.152 71.1235 278.124 71.1609 278.946 71.572C279.769 71.9832 280.404 72.6933 280.741 73.5529C281.451 75.6085 279.993 77.4398 278.647 77.9631C278.273 78.1499 277.899 78.1873 277.525 78.1873Z" fill="white"/>
<path d="M279.582 72.0205C279.357 71.871 277.825 71.0488 276.329 71.6094C275.619 71.871 275.133 72.3943 275.133 72.3943C274.721 72.8428 274.572 73.3286 274.497 73.5902C273.525 72.1326 272.553 70.675 271.581 69.2174C270.534 68.9184 269.749 68.5073 269.263 68.2457C267.618 67.3113 266.16 65.8164 266.16 65.8164C265.823 66.1901 265.337 66.5639 264.776 66.975C263.804 67.6103 262.87 67.872 262.234 68.0215C262.458 67.274 263.356 64.6951 265.935 63.088C268.777 61.2941 272.254 61.5557 274.759 62.9012C277.974 64.583 279.881 68.2083 279.582 72.0205Z" fill="white"/>
<path d="M280.143 76.3186L280.292 80.2429L278.872 77.552L280.143 76.3186Z" fill="white"/>
<path d="M281.04 85.1389C280.891 85.1389 280.778 85.0268 280.778 84.9147C280.517 83.3449 280.292 81.7752 280.031 80.2055L279.918 79.5327C279.806 78.6731 279.657 77.8135 279.545 76.9539C279.507 76.8044 279.619 76.6549 279.769 76.6549C279.918 76.6175 280.068 76.7297 280.068 76.8792C280.18 77.7388 280.33 78.5984 280.442 79.458L280.554 80.1307C280.778 81.7005 281.04 83.2702 281.302 84.8399C281.339 84.9894 281.227 85.1389 281.077 85.1763C281.04 85.1389 281.04 85.1389 281.04 85.1389Z" fill="white"/>
<path d="M285.414 247.232C285.264 247.232 285.152 247.12 285.152 247.008C284.217 240.729 283.208 234.076 282.161 227.237L281.937 225.742C280.329 215.389 278.647 204.887 276.89 194.497L276.628 192.889C276.516 192.291 276.441 191.693 276.329 191.133C274.983 183.172 273.599 175.137 272.067 166.466C272.029 166.316 272.141 166.167 272.291 166.129C272.44 166.092 272.59 166.204 272.627 166.354C274.16 174.987 275.544 183.06 276.89 191.021C277.002 191.619 277.076 192.217 277.189 192.777L277.45 194.384C279.17 204.774 280.89 215.277 282.498 225.629L282.722 227.124C283.769 233.852 284.778 240.43 285.676 246.671L291.508 246.634C292.106 246.634 292.667 246.634 293.228 246.634C295.508 246.634 297.752 246.596 300.032 246.596L303.509 246.559L296.518 151.03C296.518 150.881 296.63 150.731 296.78 150.731C296.929 150.731 297.079 150.843 297.079 150.993L304.107 246.821C304.107 246.895 304.07 246.97 304.033 247.045C303.995 247.12 303.92 247.12 303.846 247.12L300.07 247.157C297.789 247.157 295.546 247.194 293.265 247.194C292.704 247.194 292.106 247.194 291.545 247.194L285.414 247.232Z" fill="white"/>
<path d="M253.485 247.12H236.324C236.25 247.12 236.175 247.082 236.1 247.008C236.063 246.933 236.025 246.858 236.025 246.783L254.943 151.292C254.981 151.142 255.13 151.03 255.28 151.067C255.429 151.105 255.542 151.254 255.504 151.404L236.624 246.559H253.224L253.336 246.185L267.58 201.71L274.422 180.332C274.459 180.182 274.609 180.107 274.759 180.145C274.908 180.182 274.983 180.332 274.945 180.481L268.104 201.859L267.954 202.308L253.672 246.895C253.71 247.045 253.635 247.12 253.485 247.12Z" fill="white"/>
<path d="M256.215 152.488C256.71 152.488 257.112 152.086 257.112 151.591C257.112 151.095 256.71 150.694 256.215 150.694C255.719 150.694 255.317 151.095 255.317 151.591C255.317 152.086 255.719 152.488 256.215 152.488Z" fill="white"/>
<path d="M266.085 152.488C266.581 152.488 266.982 152.086 266.982 151.591C266.982 151.095 266.581 150.694 266.085 150.694C265.589 150.694 265.188 151.095 265.188 151.591C265.188 152.086 265.589 152.488 266.085 152.488Z" fill="white"/>
<path d="M275.955 152.488C276.451 152.488 276.852 152.086 276.852 151.591C276.852 151.095 276.451 150.694 275.955 150.694C275.46 150.694 275.058 151.095 275.058 151.591C275.058 152.086 275.46 152.488 275.955 152.488Z" fill="white"/>
<path d="M285.863 152.488C286.358 152.488 286.76 152.086 286.76 151.591C286.76 151.095 286.358 150.694 285.863 150.694C285.367 150.694 284.966 151.095 284.966 151.591C284.966 152.086 285.367 152.488 285.863 152.488Z" fill="white"/>
<path d="M296.63 151.591C296.63 152.114 296.219 152.488 295.733 152.488C295.696 152.488 295.658 152.488 295.621 152.488C295.77 152.226 295.92 152.002 296.032 151.778C296.144 151.516 296.294 151.292 296.406 151.03C296.406 151.03 296.406 150.993 296.443 150.993L296.481 151.03C296.556 151.18 296.63 151.404 296.63 151.591Z" fill="white"/>
<path d="M261.15 157.085C261.645 157.085 262.047 156.683 262.047 156.188C262.047 155.692 261.645 155.291 261.15 155.291C260.654 155.291 260.252 155.692 260.252 156.188C260.252 156.683 260.654 157.085 261.15 157.085Z" fill="white"/>
<path d="M271.02 157.085C271.516 157.085 271.917 156.683 271.917 156.188C271.917 155.692 271.516 155.291 271.02 155.291C270.525 155.291 270.123 155.692 270.123 156.188C270.123 156.683 270.525 157.085 271.02 157.085Z" fill="white"/>
<path d="M280.928 157.085C281.423 157.085 281.825 156.683 281.825 156.188C281.825 155.692 281.423 155.291 280.928 155.291C280.432 155.291 280.03 155.692 280.03 156.188C280.03 156.683 280.432 157.085 280.928 157.085Z" fill="white"/>
<path d="M290.798 157.085C291.293 157.085 291.695 156.683 291.695 156.188C291.695 155.692 291.293 155.291 290.798 155.291C290.302 155.291 289.901 155.692 289.901 156.188C289.901 156.683 290.302 157.085 290.798 157.085Z" fill="white"/>
<path d="M256.215 162.392C256.71 162.392 257.112 161.99 257.112 161.495C257.112 161 256.71 160.598 256.215 160.598C255.719 160.598 255.317 161 255.317 161.495C255.317 161.99 255.719 162.392 256.215 162.392Z" fill="white"/>
<path d="M266.085 162.392C266.581 162.392 266.982 161.99 266.982 161.495C266.982 161 266.581 160.598 266.085 160.598C265.589 160.598 265.188 161 265.188 161.495C265.188 161.99 265.589 162.392 266.085 162.392Z" fill="white"/>
<path d="M275.955 162.392C276.451 162.392 276.852 161.99 276.852 161.495C276.852 161 276.451 160.598 275.955 160.598C275.46 160.598 275.058 161 275.058 161.495C275.058 161.99 275.46 162.392 275.955 162.392Z" fill="white"/>
<path d="M285.863 162.392C286.358 162.392 286.76 161.99 286.76 161.495C286.76 161 286.358 160.598 285.863 160.598C285.367 160.598 284.966 161 284.966 161.495C284.966 161.99 285.367 162.392 285.863 162.392Z" fill="white"/>
<path d="M295.733 162.392C296.229 162.392 296.63 161.99 296.63 161.495C296.63 161 296.229 160.598 295.733 160.598C295.237 160.598 294.836 161 294.836 161.495C294.836 161.99 295.237 162.392 295.733 162.392Z" fill="white"/>
<path d="M261.15 166.952C261.645 166.952 262.047 166.55 262.047 166.055C262.047 165.559 261.645 165.158 261.15 165.158C260.654 165.158 260.252 165.559 260.252 166.055C260.252 166.55 260.654 166.952 261.15 166.952Z" fill="white"/>
<path d="M271.02 166.952C271.516 166.952 271.917 166.55 271.917 166.055C271.917 165.559 271.516 165.158 271.02 165.158C270.525 165.158 270.123 165.559 270.123 166.055C270.123 166.55 270.525 166.952 271.02 166.952Z" fill="white"/>
<path d="M280.928 166.952C281.423 166.952 281.825 166.55 281.825 166.055C281.825 165.559 281.423 165.158 280.928 165.158C280.432 165.158 280.03 165.559 280.03 166.055C280.03 166.55 280.432 166.952 280.928 166.952Z" fill="white"/>
<path d="M290.798 166.952C291.293 166.952 291.695 166.55 291.695 166.055C291.695 165.559 291.293 165.158 290.798 165.158C290.302 165.158 289.901 165.559 289.901 166.055C289.901 166.55 290.302 166.952 290.798 166.952Z" fill="white"/>
<path d="M256.214 172.633C256.71 172.633 257.112 172.231 257.112 171.736C257.112 171.24 256.71 170.839 256.214 170.839C255.719 170.839 255.317 171.24 255.317 171.736C255.317 172.231 255.719 172.633 256.214 172.633Z" fill="white"/>
<path d="M266.085 172.633C266.58 172.633 266.982 172.231 266.982 171.736C266.982 171.24 266.58 170.839 266.085 170.839C265.589 170.839 265.188 171.24 265.188 171.736C265.188 172.231 265.589 172.633 266.085 172.633Z" fill="white"/>
<path d="M275.955 172.633C276.45 172.633 276.852 172.231 276.852 171.736C276.852 171.24 276.45 170.839 275.955 170.839C275.459 170.839 275.058 171.24 275.058 171.736C275.058 172.231 275.459 172.633 275.955 172.633Z" fill="white"/>
<path d="M285.863 172.633C286.358 172.633 286.76 172.231 286.76 171.736C286.76 171.24 286.358 170.839 285.863 170.839C285.367 170.839 284.965 171.24 284.965 171.736C284.965 172.231 285.367 172.633 285.863 172.633Z" fill="white"/>
<path d="M295.733 172.633C296.228 172.633 296.63 172.231 296.63 171.736C296.63 171.24 296.228 170.839 295.733 170.839C295.237 170.839 294.835 171.24 294.835 171.736C294.835 172.231 295.237 172.633 295.733 172.633Z" fill="white"/>
<path d="M251.279 177.23C251.775 177.23 252.177 176.828 252.177 176.333C252.177 175.837 251.775 175.436 251.279 175.436C250.784 175.436 250.382 175.837 250.382 176.333C250.382 176.828 250.784 177.23 251.279 177.23Z" fill="white"/>
<path d="M261.15 177.23C261.645 177.23 262.047 176.828 262.047 176.333C262.047 175.837 261.645 175.436 261.15 175.436C260.654 175.436 260.252 175.837 260.252 176.333C260.252 176.828 260.654 177.23 261.15 177.23Z" fill="white"/>
<path d="M271.02 177.23C271.515 177.23 271.917 176.828 271.917 176.333C271.917 175.837 271.515 175.436 271.02 175.436C270.524 175.436 270.122 175.837 270.122 176.333C270.122 176.828 270.524 177.23 271.02 177.23Z" fill="white"/>
<path d="M280.927 177.23C281.423 177.23 281.825 176.828 281.825 176.333C281.825 175.837 281.423 175.436 280.927 175.436C280.432 175.436 280.03 175.837 280.03 176.333C280.03 176.828 280.432 177.23 280.927 177.23Z" fill="white"/>
<path d="M290.798 177.23C291.293 177.23 291.695 176.828 291.695 176.333C291.695 175.837 291.293 175.436 290.798 175.436C290.302 175.436 289.9 175.837 289.9 176.333C289.9 176.828 290.302 177.23 290.798 177.23Z" fill="white"/>
<path d="M256.214 182.537C256.71 182.537 257.112 182.135 257.112 181.64C257.112 181.144 256.71 180.743 256.214 180.743C255.719 180.743 255.317 181.144 255.317 181.64C255.317 182.135 255.719 182.537 256.214 182.537Z" fill="white"/>
<path d="M266.085 182.537C266.58 182.537 266.982 182.135 266.982 181.64C266.982 181.144 266.58 180.743 266.085 180.743C265.589 180.743 265.188 181.144 265.188 181.64C265.188 182.135 265.589 182.537 266.085 182.537Z" fill="white"/>
<path d="M275.955 182.537C276.45 182.537 276.852 182.135 276.852 181.64C276.852 181.144 276.45 180.743 275.955 180.743C275.459 180.743 275.058 181.144 275.058 181.64C275.058 182.135 275.459 182.537 275.955 182.537Z" fill="white"/>
<path d="M285.863 182.537C286.358 182.537 286.76 182.135 286.76 181.64C286.76 181.144 286.358 180.743 285.863 180.743C285.367 180.743 284.965 181.144 284.965 181.64C284.965 182.135 285.367 182.537 285.863 182.537Z" fill="white"/>
<path d="M295.733 182.537C296.228 182.537 296.63 182.135 296.63 181.64C296.63 181.144 296.228 180.743 295.733 180.743C295.237 180.743 294.835 181.144 294.835 181.64C294.835 182.135 295.237 182.537 295.733 182.537Z" fill="white"/>
<path d="M251.279 187.096C251.775 187.096 252.177 186.695 252.177 186.199C252.177 185.704 251.775 185.302 251.279 185.302C250.784 185.302 250.382 185.704 250.382 186.199C250.382 186.695 250.784 187.096 251.279 187.096Z" fill="white"/>
<path d="M261.15 187.096C261.645 187.096 262.047 186.695 262.047 186.199C262.047 185.704 261.645 185.302 261.15 185.302C260.654 185.302 260.252 185.704 260.252 186.199C260.252 186.695 260.654 187.096 261.15 187.096Z" fill="white"/>
<path d="M271.02 187.096C271.515 187.096 271.917 186.695 271.917 186.199C271.917 185.704 271.515 185.302 271.02 185.302C270.524 185.302 270.122 185.704 270.122 186.199C270.122 186.695 270.524 187.096 271.02 187.096Z" fill="white"/>
<path d="M280.927 187.096C281.423 187.096 281.825 186.695 281.825 186.199C281.825 185.704 281.423 185.302 280.927 185.302C280.432 185.302 280.03 185.704 280.03 186.199C280.03 186.695 280.432 187.096 280.927 187.096Z" fill="white"/>
<path d="M290.798 187.096C291.293 187.096 291.695 186.695 291.695 186.199C291.695 185.704 291.293 185.302 290.798 185.302C290.302 185.302 289.9 185.704 289.9 186.199C289.9 186.695 290.302 187.096 290.798 187.096Z" fill="white"/>
<path d="M248.139 191.88C248.139 192.366 247.728 192.777 247.242 192.777C247.167 192.777 247.129 192.777 247.055 192.777L247.391 190.983C247.84 191.095 248.139 191.469 248.139 191.88Z" fill="white"/>
<path d="M257.112 192.777C257.608 192.777 258.009 192.376 258.009 191.88C258.009 191.385 257.608 190.983 257.112 190.983C256.617 190.983 256.215 191.385 256.215 191.88C256.215 192.376 256.617 192.777 257.112 192.777Z" fill="white"/>
<path d="M267.02 192.777C267.515 192.777 267.917 192.376 267.917 191.88C267.917 191.385 267.515 190.983 267.02 190.983C266.524 190.983 266.122 191.385 266.122 191.88C266.122 192.376 266.524 192.777 267.02 192.777Z" fill="white"/>
<path d="M277.787 191.88C277.787 192.366 277.376 192.777 276.89 192.777C276.778 192.179 276.703 191.581 276.591 191.021C276.665 190.983 276.778 190.983 276.89 190.983C277.376 190.983 277.787 191.394 277.787 191.88Z" fill="white"/>
<path d="M286.76 192.777C287.255 192.777 287.657 192.376 287.657 191.88C287.657 191.385 287.255 190.983 286.76 190.983C286.264 190.983 285.863 191.385 285.863 191.88C285.863 192.376 286.264 192.777 286.76 192.777Z" fill="white"/>
<path d="M296.63 192.777C297.126 192.777 297.527 192.376 297.527 191.88C297.527 191.385 297.126 190.983 296.63 190.983C296.135 190.983 295.733 191.385 295.733 191.88C295.733 192.376 296.135 192.777 296.63 192.777Z" fill="white"/>
<path d="M252.177 197.374C252.672 197.374 253.074 196.973 253.074 196.477C253.074 195.982 252.672 195.58 252.177 195.58C251.681 195.58 251.279 195.982 251.279 196.477C251.279 196.973 251.681 197.374 252.177 197.374Z" fill="white"/>
<path d="M262.047 197.374C262.543 197.374 262.944 196.973 262.944 196.477C262.944 195.982 262.543 195.58 262.047 195.58C261.551 195.58 261.15 195.982 261.15 196.477C261.15 196.973 261.551 197.374 262.047 197.374Z" fill="white"/>
<path d="M281.825 197.374C282.321 197.374 282.722 196.973 282.722 196.477C282.722 195.982 282.321 195.58 281.825 195.58C281.329 195.58 280.928 195.982 280.928 196.477C280.928 196.973 281.329 197.374 281.825 197.374Z" fill="white"/>
<path d="M291.695 197.374C292.19 197.374 292.592 196.973 292.592 196.477C292.592 195.982 292.19 195.58 291.695 195.58C291.199 195.58 290.798 195.982 290.798 196.477C290.798 196.973 291.199 197.374 291.695 197.374Z" fill="white"/>
<path d="M247.242 202.682C247.737 202.682 248.139 202.28 248.139 201.785C248.139 201.289 247.737 200.888 247.242 200.888C246.746 200.888 246.344 201.289 246.344 201.785C246.344 202.28 246.746 202.682 247.242 202.682Z" fill="white"/>
<path d="M257.112 202.682C257.608 202.682 258.009 202.28 258.009 201.785C258.009 201.289 257.608 200.888 257.112 200.888C256.617 200.888 256.215 201.289 256.215 201.785C256.215 202.28 256.617 202.682 257.112 202.682Z" fill="white"/>
<path d="M267.02 202.682C267.515 202.682 267.917 202.28 267.917 201.785C267.917 201.289 267.515 200.888 267.02 200.888C266.524 200.888 266.122 201.289 266.122 201.785C266.122 202.28 266.524 202.682 267.02 202.682Z" fill="white"/>
<path d="M286.76 202.682C287.255 202.682 287.657 202.28 287.657 201.785C287.657 201.289 287.255 200.888 286.76 200.888C286.264 200.888 285.863 201.289 285.863 201.785C285.863 202.28 286.264 202.682 286.76 202.682Z" fill="white"/>
<path d="M296.63 202.682C297.126 202.682 297.527 202.28 297.527 201.785C297.527 201.289 297.126 200.888 296.63 200.888C296.135 200.888 295.733 201.289 295.733 201.785C295.733 202.28 296.135 202.682 296.63 202.682Z" fill="white"/>
<path d="M252.177 207.241C252.672 207.241 253.074 206.839 253.074 206.344C253.074 205.849 252.672 205.447 252.177 205.447C251.681 205.447 251.279 205.849 251.279 206.344C251.279 206.839 251.681 207.241 252.177 207.241Z" fill="white"/>
<path d="M262.047 207.241C262.543 207.241 262.944 206.839 262.944 206.344C262.944 205.849 262.543 205.447 262.047 205.447C261.551 205.447 261.15 205.849 261.15 206.344C261.15 206.839 261.551 207.241 262.047 207.241Z" fill="white"/>
<path d="M281.825 207.241C282.321 207.241 282.722 206.839 282.722 206.344C282.722 205.849 282.321 205.447 281.825 205.447C281.329 205.447 280.928 205.849 280.928 206.344C280.928 206.839 281.329 207.241 281.825 207.241Z" fill="white"/>
<path d="M291.695 207.241C292.19 207.241 292.592 206.839 292.592 206.344C292.592 205.849 292.19 205.447 291.695 205.447C291.199 205.447 290.798 205.849 290.798 206.344C290.798 206.839 291.199 207.241 291.695 207.241Z" fill="white"/>
<path d="M300.892 206.942C300.743 206.793 300.668 206.568 300.668 206.344C300.668 206.157 300.705 206.008 300.817 205.858C300.855 206.232 300.855 206.568 300.892 206.942Z" fill="white"/>
<path d="M247.242 212.922C247.738 212.922 248.139 212.521 248.139 212.025C248.139 211.53 247.738 211.128 247.242 211.128C246.746 211.128 246.345 211.53 246.345 212.025C246.345 212.521 246.746 212.922 247.242 212.922Z" fill="white"/>
<path d="M257.112 212.922C257.608 212.922 258.009 212.521 258.009 212.025C258.009 211.53 257.608 211.128 257.112 211.128C256.617 211.128 256.215 211.53 256.215 212.025C256.215 212.521 256.617 212.922 257.112 212.922Z" fill="white"/>
<path d="M286.76 212.922C287.255 212.922 287.657 212.521 287.657 212.025C287.657 211.53 287.255 211.128 286.76 211.128C286.264 211.128 285.863 211.53 285.863 212.025C285.863 212.521 286.264 212.922 286.76 212.922Z" fill="white"/>
<path d="M296.63 212.922C297.126 212.922 297.527 212.521 297.527 212.025C297.527 211.53 297.126 211.128 296.63 211.128C296.135 211.128 295.733 211.53 295.733 212.025C295.733 212.521 296.135 212.922 296.63 212.922Z" fill="white"/>
<path d="M243.204 216.622C243.204 217.108 242.793 217.519 242.307 217.519C242.269 217.519 242.232 217.519 242.195 217.519L242.531 215.725C242.905 215.837 243.204 216.174 243.204 216.622Z" fill="white"/>
<path d="M252.177 217.519C252.672 217.519 253.074 217.118 253.074 216.622C253.074 216.127 252.672 215.725 252.177 215.725C251.681 215.725 251.28 216.127 251.28 216.622C251.28 217.118 251.681 217.519 252.177 217.519Z" fill="white"/>
<path d="M262.047 217.519C262.543 217.519 262.944 217.118 262.944 216.622C262.944 216.127 262.543 215.725 262.047 215.725C261.551 215.725 261.15 216.127 261.15 216.622C261.15 217.118 261.551 217.519 262.047 217.519Z" fill="white"/>
<path d="M281.825 217.519C282.321 217.519 282.723 217.118 282.723 216.622C282.723 216.127 282.321 215.725 281.825 215.725C281.33 215.725 280.928 216.127 280.928 216.622C280.928 217.118 281.33 217.519 281.825 217.519Z" fill="white"/>
<path d="M291.695 217.519C292.191 217.519 292.592 217.118 292.592 216.622C292.592 216.127 292.191 215.725 291.695 215.725C291.2 215.725 290.798 216.127 290.798 216.622C290.798 217.118 291.2 217.519 291.695 217.519Z" fill="white"/>
<path d="M301.678 217.519C301.64 217.519 301.64 217.519 301.603 217.519C301.117 217.519 300.706 217.108 300.706 216.622C300.706 216.136 301.079 215.725 301.565 215.725C301.565 216.286 301.64 216.921 301.678 217.519Z" fill="white"/>
<path d="M247.242 222.826C247.738 222.826 248.139 222.425 248.139 221.929C248.139 221.434 247.738 221.032 247.242 221.032C246.746 221.032 246.345 221.434 246.345 221.929C246.345 222.425 246.746 222.826 247.242 222.826Z" fill="white"/>
<path d="M257.112 222.826C257.608 222.826 258.009 222.425 258.009 221.929C258.009 221.434 257.608 221.032 257.112 221.032C256.617 221.032 256.215 221.434 256.215 221.929C256.215 222.425 256.617 222.826 257.112 222.826Z" fill="white"/>
<path d="M286.76 222.826C287.255 222.826 287.657 222.425 287.657 221.929C287.657 221.434 287.255 221.032 286.76 221.032C286.264 221.032 285.863 221.434 285.863 221.929C285.863 222.425 286.264 222.826 286.76 222.826Z" fill="white"/>
<path d="M296.63 222.826C297.126 222.826 297.527 222.425 297.527 221.929C297.527 221.434 297.126 221.032 296.63 221.032C296.135 221.032 295.733 221.434 295.733 221.929C295.733 222.425 296.135 222.826 296.63 222.826Z" fill="white"/>
<path d="M242.307 227.386C242.802 227.386 243.204 226.984 243.204 226.489C243.204 225.994 242.802 225.592 242.307 225.592C241.811 225.592 241.409 225.994 241.409 226.489C241.409 226.984 241.811 227.386 242.307 227.386Z" fill="white"/>
<path d="M252.177 227.386C252.672 227.386 253.074 226.984 253.074 226.489C253.074 225.994 252.672 225.592 252.177 225.592C251.681 225.592 251.28 225.994 251.28 226.489C251.28 226.984 251.681 227.386 252.177 227.386Z" fill="white"/>
<path d="M282.722 226.489C282.722 226.751 282.61 227.012 282.423 227.162C282.348 226.676 282.274 226.153 282.199 225.667C282.498 225.816 282.722 226.115 282.722 226.489Z" fill="white"/>
<path d="M291.695 227.386C292.191 227.386 292.592 226.984 292.592 226.489C292.592 225.994 292.191 225.592 291.695 225.592C291.2 225.592 290.798 225.994 290.798 226.489C290.798 226.984 291.2 227.386 291.695 227.386Z" fill="white"/>
<path d="M301.603 227.386C302.098 227.386 302.5 226.984 302.5 226.489C302.5 225.994 302.098 225.592 301.603 225.592C301.107 225.592 300.706 225.994 300.706 226.489C300.706 226.984 301.107 227.386 301.603 227.386Z" fill="white"/>
<path d="M247.877 233.067C248.373 233.067 248.775 232.665 248.775 232.17C248.775 231.674 248.373 231.273 247.877 231.273C247.382 231.273 246.98 231.674 246.98 232.17C246.98 232.665 247.382 233.067 247.877 233.067Z" fill="white"/>
<path d="M258.421 231.534L257.935 233.104C257.897 233.104 257.86 233.104 257.785 233.104C257.299 233.104 256.888 232.693 256.888 232.207C256.888 231.721 257.299 231.31 257.785 231.31C258.009 231.273 258.234 231.348 258.421 231.534Z" fill="white"/>
<path d="M287.396 233.067C287.891 233.067 288.293 232.665 288.293 232.17C288.293 231.674 287.891 231.273 287.396 231.273C286.9 231.273 286.498 231.674 286.498 232.17C286.498 232.665 286.9 233.067 287.396 233.067Z" fill="white"/>
<path d="M297.303 233.067C297.799 233.067 298.2 232.665 298.2 232.17C298.2 231.674 297.799 231.273 297.303 231.273C296.808 231.273 296.406 231.674 296.406 232.17C296.406 232.665 296.808 233.067 297.303 233.067Z" fill="white"/>
<path d="M242.942 237.664C243.438 237.664 243.84 237.262 243.84 236.767C243.84 236.272 243.438 235.87 242.942 235.87C242.447 235.87 242.045 236.272 242.045 236.767C242.045 237.262 242.447 237.664 242.942 237.664Z" fill="white"/>
<path d="M252.812 237.664C253.308 237.664 253.71 237.262 253.71 236.767C253.71 236.272 253.308 235.87 252.812 235.87C252.317 235.87 251.915 236.272 251.915 236.767C251.915 237.262 252.317 237.664 252.812 237.664Z" fill="white"/>
<path d="M292.368 237.664C292.863 237.664 293.265 237.262 293.265 236.767C293.265 236.272 292.863 235.87 292.368 235.87C291.872 235.87 291.47 236.272 291.47 236.767C291.47 237.262 291.872 237.664 292.368 237.664Z" fill="white"/>
<path d="M302.238 237.664C302.733 237.664 303.135 237.262 303.135 236.767C303.135 236.272 302.733 235.87 302.238 235.87C301.742 235.87 301.341 236.272 301.341 236.767C301.341 237.262 301.742 237.664 302.238 237.664Z" fill="white"/>
<path d="M238.007 242.971C238.502 242.971 238.904 242.57 238.904 242.074C238.904 241.579 238.502 241.177 238.007 241.177C237.511 241.177 237.11 241.579 237.11 242.074C237.11 242.57 237.511 242.971 238.007 242.971Z" fill="white"/>
<path d="M247.877 242.971C248.373 242.971 248.775 242.57 248.775 242.074C248.775 241.579 248.373 241.177 247.877 241.177C247.382 241.177 246.98 241.579 246.98 242.074C246.98 242.57 247.382 242.971 247.877 242.971Z" fill="white"/>
<path d="M287.396 242.971C287.891 242.971 288.293 242.57 288.293 242.074C288.293 241.579 287.891 241.177 287.396 241.177C286.9 241.177 286.498 241.579 286.498 242.074C286.498 242.57 286.9 242.971 287.396 242.971Z" fill="white"/>
<path d="M297.303 242.971C297.799 242.971 298.2 242.57 298.2 242.074C298.2 241.579 297.799 241.177 297.303 241.177C296.808 241.177 296.406 241.579 296.406 242.074C296.406 242.57 296.808 242.971 297.303 242.971Z" fill="white"/>
<path d="M243.877 246.634C243.877 246.708 243.877 246.783 243.839 246.858H242.082C242.082 246.783 242.045 246.708 242.045 246.634C242.045 246.148 242.456 245.737 242.942 245.737C243.466 245.737 243.877 246.148 243.877 246.634Z" fill="white"/>
<path d="M253.672 246.297L253.485 246.858H251.952C251.952 246.783 251.915 246.708 251.915 246.634C251.915 246.148 252.326 245.737 252.812 245.737C253.224 245.737 253.523 245.961 253.672 246.297Z" fill="white"/>
<path d="M293.265 246.634C293.265 246.746 293.265 246.821 293.228 246.933C292.667 246.933 292.069 246.933 291.508 246.933C291.47 246.858 291.47 246.746 291.47 246.634C291.47 246.148 291.882 245.737 292.368 245.737C292.854 245.737 293.265 246.148 293.265 246.634Z" fill="white"/>
<path d="M303.135 246.634C303.135 246.709 303.135 246.783 303.098 246.858C302.5 246.858 301.939 246.858 301.341 246.858C301.303 246.783 301.303 246.709 301.303 246.634C301.303 246.148 301.715 245.737 302.201 245.737C302.724 245.737 303.135 246.148 303.135 246.634Z" fill="white"/>
<path d="M214.49 92.8754C214.378 92.8754 214.229 92.8754 214.117 92.838C213.631 92.7259 213.219 92.4269 212.845 91.941C212.509 91.4925 212.21 90.8945 211.948 90.2965L211.911 90.2218C211.2 88.7268 210.864 87.2318 210.901 85.849C210.939 83.8681 211.761 81.8125 213.144 80.0186C214.341 78.5236 215.911 77.2902 217.594 76.6175C217.818 76.5054 218.042 76.4306 218.304 76.3559C219.799 75.87 221.519 75.9821 224.622 76.2064C225.968 76.2811 226.978 76.4306 227.613 76.8791C227.838 77.0286 228.025 77.2529 228.137 77.4771C228.324 77.9256 228.398 78.5983 228.025 79.0468C228.735 79.2711 229.221 79.7569 229.371 80.3549C229.483 80.8782 229.296 81.4388 228.922 81.8499C228.66 82.1489 228.286 82.2984 227.838 82.3732C227.426 82.4105 226.978 82.3732 226.417 82.3358C226.043 82.2984 225.632 82.261 225.146 82.261C223.8 82.2237 222.454 82.3358 221.37 82.4479C222.641 82.6348 223.949 82.8964 225.258 83.158C226.454 83.4196 227.464 83.6439 228.099 84.0176C228.099 84.0176 228.137 84.0176 228.137 84.055C228.473 84.2792 228.698 84.5409 228.81 84.8772C228.997 85.4005 228.81 86.0732 228.398 86.4843C228.361 86.5217 228.324 86.5591 228.286 86.5591C228.286 86.5591 228.249 86.5591 228.249 86.5965C227.725 86.9702 227.053 86.8581 226.08 86.7086C225.071 86.5591 224.099 86.4096 223.239 86.2975C222.416 86.1853 221.706 86.0732 221.145 85.9985C222.304 86.447 223.351 86.746 224.211 86.9702C225.781 87.3813 226.791 87.6803 227.053 88.5026C227.09 88.6147 227.239 89.0632 227.015 89.4743C226.753 89.9228 226.155 90.0349 225.931 90.0723C224.174 90.3339 219.65 88.8389 218.379 88.3904C218.267 89.3248 217.93 90.1844 217.407 90.8945C217.257 91.1935 215.986 92.8754 214.49 92.8754ZM220.996 76.5427C219.986 76.5427 219.201 76.6175 218.491 76.8417C218.267 76.9165 218.042 76.9912 217.818 77.1034C216.21 77.7761 214.715 78.8973 213.593 80.3549C212.247 82.0368 211.499 83.9803 211.462 85.849C211.425 87.1571 211.761 88.5399 212.397 89.9602L212.434 90.0349C212.696 90.6329 212.958 91.1935 213.294 91.6046C213.593 92.0158 213.892 92.24 214.266 92.3147C215.575 92.5764 216.921 90.745 217.07 90.5208C217.594 89.7733 217.893 88.8763 217.967 87.9419C217.967 87.8672 218.005 87.7924 218.08 87.7177C218.154 87.6803 218.229 87.6429 218.341 87.6803C218.416 87.7177 224.062 89.7359 225.931 89.4369C226.08 89.3995 226.454 89.3622 226.604 89.1005C226.716 88.8763 226.604 88.5773 226.604 88.5773C226.417 88.0167 225.445 87.7551 224.136 87.4187C223.164 87.1571 221.968 86.8207 220.659 86.2975C220.285 86.148 219.912 85.9985 219.687 85.8863C219.575 85.849 219.5 85.8116 219.426 85.7742L219.351 85.7368C219.239 85.6621 219.164 85.55 219.201 85.4005C219.239 85.2884 219.351 85.1762 219.5 85.1762L219.912 85.2136C220.211 85.251 220.734 85.2884 221.332 85.3631C221.893 85.4379 222.641 85.55 223.463 85.6995C224.323 85.849 225.295 85.9985 226.305 86.1106C227.202 86.2227 227.725 86.2975 228.062 86.1106C228.062 86.1106 228.062 86.1106 228.099 86.0732C228.137 86.0732 228.137 86.0358 228.174 86.0358C228.436 85.7742 228.548 85.3631 228.436 84.9894C228.361 84.7651 228.212 84.6156 227.987 84.4661C227.987 84.4661 227.95 84.4661 227.95 84.4287C227.389 84.0924 226.417 83.8681 225.333 83.6439C223.65 83.3075 222.005 83.0085 220.36 82.7843C220.136 82.7469 219.912 82.7095 219.687 82.7095C219.538 82.7095 219.463 82.5974 219.426 82.4479C219.426 82.2984 219.5 82.1863 219.65 82.1489C219.65 82.1489 219.874 82.1115 220.323 82.0368C221.557 81.8125 223.426 81.5883 225.37 81.663C225.856 81.663 226.267 81.7004 226.641 81.7378C227.202 81.7752 227.613 81.8125 227.95 81.7752C228.286 81.7378 228.511 81.6257 228.698 81.4388C228.959 81.1772 229.071 80.7661 228.997 80.4671C228.884 79.9812 228.398 79.6074 227.725 79.4953C227.651 79.4953 227.576 79.458 227.501 79.458C227.464 79.458 227.464 79.458 227.426 79.4206C227.053 79.4953 226.492 79.458 225.557 79.458H225.146C224.323 79.4206 223.912 79.4206 223.688 79.4206C222.454 79.3458 221.145 79.3832 219.762 79.6074C219.612 79.6448 219.463 79.5327 219.463 79.3832C219.426 79.2337 219.538 79.0842 219.687 79.0842C221.108 78.8973 222.454 78.8226 223.725 78.8973C223.912 78.8973 224.361 78.9347 225.146 78.9347H225.557C226.791 78.9721 227.352 78.9721 227.613 78.8226C227.651 78.7852 227.688 78.7852 227.725 78.7478C227.912 78.5236 227.95 78.0751 227.763 77.7387C227.688 77.5892 227.576 77.4771 227.426 77.365C226.866 76.9912 225.819 76.8791 224.734 76.8044C223.127 76.6175 221.968 76.5427 220.996 76.5427Z" fill="white"/>
<path d="M259.916 91.2684C259.804 91.2684 259.692 91.1936 259.654 91.0815C257.149 83.1581 253.635 75.6085 249.261 68.6942C244.811 61.7052 235.577 47.1665 223.314 39.5795C223.164 39.5048 223.127 39.3179 223.239 39.2058C223.314 39.0563 223.501 39.0189 223.613 39.131C235.988 46.7554 245.26 61.3688 249.709 68.3952C254.121 75.3469 257.635 82.9339 260.178 90.8946C260.215 91.0441 260.14 91.1936 259.991 91.231C259.991 91.2684 259.953 91.2684 259.916 91.2684Z" fill="white"/>
<path d="M194.713 107.825C189.291 107.825 183.721 106.405 178.898 103.789C173.364 100.799 169.252 96.5008 166.971 91.3805C164.616 86.1107 164.653 81.7752 164.915 79.6823C165.812 71.9084 169.813 62.3779 175.682 54.2303C184.431 42.0089 195.572 34.7209 206.228 34.1602C208.471 34.0481 210.714 34.235 212.958 34.6835C214.117 34.9077 215.313 35.2441 216.509 35.6552C217.556 36.029 218.603 36.4401 219.65 36.9259C219.799 37.0007 219.837 37.1502 219.799 37.2997C219.725 37.4492 219.575 37.4866 219.426 37.4492C218.416 36.9633 217.369 36.5522 216.322 36.2158C215.163 35.8047 214.004 35.4683 212.845 35.2441C210.64 34.7956 208.434 34.6087 206.265 34.7209C195.797 35.2441 184.805 42.4947 176.169 54.5293C170.373 62.6395 166.373 72.0579 165.476 79.7197C165.289 81.3641 165.102 85.8117 167.495 91.1189C169.738 96.127 173.776 100.313 179.197 103.228C184.244 105.957 190.114 107.377 195.722 107.19C204.209 106.928 210.677 103.116 214.603 99.9392C214.715 99.8271 214.902 99.8645 215.014 99.9766C215.126 100.089 215.089 100.276 214.976 100.388C210.976 103.602 204.358 107.489 195.759 107.75C195.386 107.825 195.049 107.825 194.713 107.825Z" fill="white"/>
<path d="M49.5757 117.169C49.4636 117.169 49.3514 117.094 49.314 116.982C47.8559 113.095 46.51 109.133 45.351 105.209L45.3136 105.134C43.1451 97.8462 39.8924 86.8955 38.0978 75.2347C35.1443 55.8374 37.6118 42.121 45.3883 34.534C47.5568 32.4036 50.3608 30.5723 53.0153 29.451C56.3054 28.1056 59.3712 27.8439 61.9135 28.7409C63.8576 29.4137 65.5774 30.7965 67.1103 32.9269C67.1851 33.039 67.1851 33.2258 67.0355 33.3006C66.9234 33.3753 66.7364 33.3753 66.6617 33.2258C65.2036 31.2076 63.5959 29.8995 61.7639 29.2642C56.6419 27.4702 49.8748 30.946 45.7996 34.9451C38.1352 42.42 35.7425 55.9495 38.6587 75.1599C40.4159 86.7834 43.7059 97.7341 45.837 104.985L45.8744 105.059C47.0334 108.984 48.3793 112.908 49.8374 116.795C49.8748 116.945 49.8 117.094 49.6879 117.169C49.6505 117.131 49.6131 117.169 49.5757 117.169Z" fill="white"/>
<path d="M140.389 270.068C133.435 270.068 127.528 268.274 123.415 264.835C121.322 263.079 119.49 260.724 118.181 258.108C117.06 255.865 116.349 253.473 116.125 251.156C115.938 249.138 116.088 247.232 116.574 245.438C118.144 239.869 123.565 234.898 131.416 231.834C138.856 228.918 147.792 228.059 155.232 229.516C163.794 231.161 169.103 235.421 174.262 239.533C176.206 241.065 178.038 242.523 179.982 243.793C182.786 233.889 181.852 221.144 177.29 206.942C169.551 210.493 155.942 214.641 142.67 216.062C131.229 217.295 115.938 216.958 107.937 208.213C107.414 207.615 106.89 207.017 106.442 206.382C101.245 199.094 102.516 189.899 103.114 185.452C103.899 179.696 106.105 173.866 109.32 169.044C113.097 163.364 118.106 159.252 123.864 157.197C126.481 156.262 129.21 155.702 131.977 155.59C131.902 153.833 131.977 152.151 132.239 150.544C132.575 148.638 133.136 146.844 133.959 145.274C138.52 136.529 149.886 135.295 161.887 134.025C168.168 133.352 174.673 132.642 180.356 130.81C161.251 120.682 153.363 109.731 149.138 102.331C146.558 97.8088 144.39 92.8754 142.595 87.1945C134.482 92.2401 129.136 98.9301 127.827 105.545C127.005 109.843 128.051 113.095 129.21 116.533C130.519 120.458 131.865 124.569 130.033 130.25C127.117 139.22 119.004 144.676 112.947 146.62C104.572 149.311 93.73 147.666 85.2805 142.397C80.6445 139.519 77.2422 135.744 75.7467 131.82C72.9053 124.419 75.5972 113.319 83.0746 101.285C88.3836 92.7259 95.7489 84.2793 104.348 76.9166C106.367 75.16 108.498 73.4781 110.629 71.871C112.611 70.376 114.629 68.9932 116.648 67.6851C122.069 64.1345 127.715 61.1445 133.36 58.8273C132.089 57.3697 130.556 56.4727 128.724 56.0616C124.088 55.0151 119.751 57.7061 115.19 60.5839C115.041 60.6587 114.891 60.6213 114.816 60.5092C114.742 60.3971 114.779 60.2102 114.891 60.1354C119.565 57.1829 124.014 54.4172 128.874 55.5384C130.893 55.9869 132.538 57.0334 133.921 58.6405C143.978 54.5666 153.961 52.5858 163.569 52.7727C167.57 52.8474 171.757 53.2959 175.982 54.1182C189.89 56.8091 204.134 63.4618 213.145 71.4599C213.257 71.572 213.257 71.7215 213.182 71.871C213.07 71.9831 212.92 71.9831 212.771 71.9084C203.835 63.985 189.666 57.3697 175.87 54.6788C171.682 53.8565 167.532 53.408 163.569 53.3333C154.073 53.1464 144.24 55.0899 134.295 59.089C136.912 62.5274 138.221 67.9093 139.866 74.6741C140.726 78.2247 141.698 82.2237 142.969 86.3349C149.848 82.1863 157.699 79.757 165.214 79.458C169.813 79.2711 174.187 79.9065 178.15 81.3267C182.076 82.747 191.61 87.0824 195.76 97.0614C195.76 97.0987 195.797 97.1361 195.834 97.2109C199.012 104.91 198.489 114.291 194.488 121.056C191.834 125.578 187.684 128.792 181.852 130.923C186.861 133.501 191.797 135.669 196.582 137.762C206.677 142.172 215.388 145.984 220.024 151.89C222.005 154.394 223.09 157.085 223.426 160.149C223.763 163.214 223.239 166.391 221.893 169.568C221.893 169.568 221.893 169.568 221.893 169.605C219.052 176.258 212.883 182.238 207.724 186.723C219.426 202.98 223.576 230.301 211.35 241.327C207.649 244.69 200.508 248.204 194.04 248.465C190.638 248.615 187.534 247.83 187.497 247.83C185.104 247.232 182.824 246.223 180.394 244.728C179.347 248.166 177.814 251.268 175.87 253.884C169.85 262.069 157.999 268.311 145.661 269.806C143.829 269.955 142.072 270.068 140.389 270.068ZM147.829 229.367C142.371 229.367 136.688 230.376 131.678 232.357C123.976 235.347 118.705 240.168 117.172 245.587C116.686 247.307 116.536 249.138 116.723 251.119C116.947 253.361 117.62 255.678 118.705 257.846C119.976 260.425 121.733 262.667 123.789 264.387C128.762 268.573 136.538 270.254 145.586 269.171C157.737 267.713 169.439 261.546 175.384 253.473C177.328 250.857 178.823 247.755 179.87 244.317C177.851 243.008 175.944 241.514 173.963 239.906C168.878 235.833 163.607 231.647 155.195 230.002C152.839 229.591 150.372 229.367 147.829 229.367ZM180.543 244.092C182.973 245.625 185.254 246.634 187.647 247.232C187.684 247.232 190.712 247.979 194.04 247.83C200.358 247.568 207.35 244.13 210.976 240.841C222.978 230.002 218.865 203.093 207.275 187.022C205.106 188.89 202.901 190.722 200.919 192.329C194.189 197.86 186.45 202.681 177.851 206.681C182.487 221.107 183.422 234.039 180.543 244.092ZM103.712 185.489C103.712 185.489 103.712 185.527 103.712 185.489C103.114 189.862 101.88 198.907 106.928 206.045C107.376 206.643 107.862 207.241 108.386 207.839C116.237 216.398 131.341 216.734 142.632 215.501C155.868 214.081 169.439 209.895 177.141 206.382C171.72 189.825 164.953 179.883 162.822 177.005C155.868 178.874 148.577 180.257 141.959 175.436C136.576 171.511 132.613 163.737 132.014 156.113C129.285 156.225 126.593 156.786 124.051 157.683C116.05 160.598 105.881 169.642 103.712 185.489ZM163.42 176.856C165.7 179.995 172.355 189.899 177.664 206.157C186.189 202.196 193.89 197.412 200.545 191.918C202.527 190.311 204.733 188.442 206.901 186.573C203.723 182.238 199.91 177.827 193.703 175.024C184.469 170.801 175.458 173.417 166.747 175.921C165.663 176.22 164.541 176.557 163.42 176.856ZM183.198 172.184C186.749 172.184 190.338 172.819 193.965 174.464C200.246 177.342 204.134 181.752 207.35 186.162C212.434 181.714 218.528 175.847 221.332 169.306C221.332 169.306 221.332 169.306 221.332 169.269C222.678 166.129 223.164 163.139 222.828 160.112C222.491 157.159 221.445 154.543 219.538 152.151C215.014 146.396 206.34 142.583 196.32 138.211C191.385 136.043 186.301 133.8 181.104 131.109C175.271 133.09 168.542 133.8 161.999 134.511C150.147 135.781 138.968 136.977 134.519 145.461C133.734 146.956 133.173 148.675 132.874 150.544C132.613 152.076 132.538 153.758 132.613 155.478C133.772 155.44 134.968 155.478 136.015 155.59C148.614 156.973 156.316 167.213 163.121 176.295C164.28 175.959 165.476 175.622 166.672 175.286C172.019 173.791 177.552 172.184 183.198 172.184ZM132.613 156.076C133.173 163.55 137.062 171.137 142.333 174.987C148.689 179.621 155.755 178.351 162.485 176.519C155.793 167.55 148.166 157.533 135.903 156.188C134.893 156.113 133.772 156.038 132.613 156.076ZM133.734 59.3132C128.051 61.6304 122.406 64.6204 116.947 68.1709C114.966 69.479 112.947 70.8619 110.965 72.3569C108.834 73.964 106.741 75.6458 104.722 77.365C96.1975 84.6904 88.8696 93.0997 83.5607 101.584C76.1954 113.431 73.5409 124.382 76.3075 131.595C77.7656 135.408 81.0557 139.07 85.617 141.873C93.9169 147.031 104.61 148.675 112.797 146.022C118.705 144.116 126.631 138.771 129.51 129.988C131.304 124.457 129.996 120.458 128.687 116.608C127.565 113.244 126.406 109.769 127.266 105.321C128.612 98.519 134.108 91.6794 142.408 86.5218C141.1 82.3358 140.127 78.2994 139.268 74.7115C137.66 68.0214 136.351 62.6395 133.734 59.3132ZM143.118 86.8581C144.913 92.5391 147.044 97.5099 149.661 101.995C158.522 117.393 171.832 125.653 181.141 130.511C187.123 128.456 191.311 125.242 193.965 120.719C197.891 114.104 198.377 104.91 195.274 97.3604C195.274 97.323 195.236 97.2856 195.236 97.2482C191.161 87.4561 181.777 83.1955 177.963 81.8126C174.075 80.3924 169.776 79.7944 165.252 79.9439C157.737 80.2802 149.923 82.7096 143.118 86.8581Z" fill="white"/>
<path d="M95.6741 67.8346C94.403 67.8346 93.1318 67.7225 91.8233 67.5356C88.9818 67.1245 82.3643 66.1528 77.9526 60.9951C75.672 58.3041 75.1486 55.9122 74.4382 52.5858C74.0643 50.9414 73.6905 49.0353 72.9801 46.7928C72.7184 45.9706 72.4193 45.0736 72.0828 44.1766C72.0454 44.0271 72.0828 43.8776 72.2324 43.8029C72.3819 43.7281 72.5315 43.8029 72.6062 43.915C72.6062 43.915 72.6436 43.9524 72.6436 43.9897C72.9801 44.8867 73.2792 45.7837 73.5409 46.6059C74.2513 48.8858 74.6625 50.7919 75.0364 52.4363C75.7468 55.6879 76.2328 58.0051 78.4386 60.584C82.7382 65.5921 89.2062 66.5265 91.9728 66.9376C95.2255 67.4235 98.3286 67.274 101.469 66.5265C102.329 66.3396 103.226 66.078 104.049 65.779L104.198 65.7416L104.311 66.0033L104.385 66.2649L104.236 66.3022C103.376 66.6012 102.479 66.8629 101.581 67.0871C99.5998 67.573 97.6557 67.8346 95.6741 67.8346Z" fill="white"/>
<path d="M235.053 279C234.904 279 234.792 278.888 234.792 278.776C233.558 269.918 232.362 261.023 231.24 252.352C227.613 224.77 224.286 196.888 221.332 169.456C220.697 163.663 220.099 157.795 219.5 152.039C217.668 134.398 215.986 116.496 214.416 98.8927C214.266 96.7624 214.117 94.6694 213.967 92.5764C213.967 92.4269 214.079 92.2774 214.229 92.2774C214.378 92.2774 214.528 92.3895 214.528 92.539C214.677 94.5946 214.827 96.725 214.976 98.8179C216.547 116.459 218.229 134.324 220.061 151.964C220.659 157.72 221.258 163.588 221.893 169.381C224.847 196.814 228.174 224.695 231.801 252.277C232.735 259.453 233.707 266.779 234.717 274.141C234.717 274.067 234.717 273.992 234.717 273.954V273.88C234.717 273.768 234.53 262.443 234.306 251.231C234.119 241.85 232.175 189.6 228.548 96.0149C228.324 92.4269 228.099 88.9511 227.912 86.3349L228.174 86.2975H228.473C228.66 88.9137 228.885 92.3895 229.109 95.9775C232.735 189.6 234.68 241.812 234.866 251.231C235.091 262.443 235.278 273.768 235.278 273.88V273.954C235.315 275.562 235.315 277.169 235.352 278.738C235.315 278.888 235.203 279 235.053 279Z" fill="white"/>
<path d="M213.369 80.4671C213.219 80.4671 213.107 80.3549 213.107 80.2055C212.92 76.9165 212.771 74.2255 212.658 71.7215C211.911 55.7626 211.873 43.3917 212.621 34.9824C213.219 27.8813 214.341 23.5458 216.023 21.7892C216.659 21.1539 217.257 20.8923 217.893 21.1165C218.678 21.3781 221.071 22.1256 223.762 39.3552C225.183 48.4746 226.492 61.1819 227.725 77.066C227.725 77.2155 227.613 77.365 227.464 77.365C227.314 77.365 227.165 77.2529 227.165 77.1034C225.931 61.2192 224.585 48.5493 223.202 39.43C221.033 25.4519 219.014 22.0509 217.743 21.6397C217.332 21.5276 216.883 21.6771 216.435 22.163C214.864 23.8075 213.78 28.1429 213.182 35.0198C212.472 43.3917 212.472 55.7252 213.219 71.6841C213.331 74.1882 213.481 76.8791 213.668 80.1681C213.668 80.3176 213.556 80.4671 213.369 80.4671C213.406 80.4671 213.406 80.4671 213.369 80.4671Z" fill="white"/>
<path d="M220.024 58.902H217.818C217.669 58.902 217.557 58.7899 217.557 58.6778C216.734 53.7817 216.248 48.7736 216.098 43.8028C216.024 40.4391 216.061 36.6642 216.285 33.6743C216.622 28.255 217.22 28.2176 217.519 28.2176C217.818 28.2176 218.416 28.1803 219.314 33.45C219.8 36.44 220.248 40.2148 220.473 43.5785C220.809 48.5867 220.772 53.6696 220.323 58.6404C220.286 58.7899 220.174 58.902 220.024 58.902ZM218.043 58.3414H219.762C220.174 53.4827 220.211 48.5119 219.875 43.6159C219.389 36.5147 218.192 29.6379 217.519 28.8156C216.958 29.6752 216.472 36.4774 216.659 43.7654C216.771 48.6614 217.22 53.5575 218.043 58.3414Z" fill="white"/>
<path d="M227.987 84.2045H227.688C227.651 83.756 227.614 83.2701 227.576 82.7843L227.539 82.0368C227.539 81.8873 227.651 81.7378 227.801 81.7378C227.95 81.7378 228.1 81.8499 228.1 81.9994L228.137 82.7469C228.174 83.2328 228.212 83.6813 228.249 84.1671L227.987 84.2045Z" fill="white"/>
</g>
<defs>
<clipPath id="clip0">
<rect width="348" height="279" fill="white"/>
</clipPath>
</defs>
</svg>
