<svg width="17" height="17" viewBox="0 0 17 17" fill="none" xmlns="http://www.w3.org/2000/svg">
<path d="M5.42296 13.2229C4.44276 13.2229 3.64819 14.0175 3.64819 14.9977C3.64819 15.9779 4.4428 16.7724 5.42296 16.7724C6.40316 16.7724 7.19773 15.9778 7.19773 14.9977C7.19777 14.0175 6.40316 13.2229 5.42296 13.2229ZM5.42296 15.9837C4.87842 15.9837 4.43699 15.5423 4.43699 14.9977C4.43699 14.4532 4.87842 14.0117 5.42296 14.0117C5.96751 14.0117 6.40894 14.4532 6.40894 14.9977C6.40897 15.5423 5.96751 15.9837 5.42296 15.9837Z" fill="#1427C8"/>
<path d="M12.9164 13.2229C11.9362 13.2229 11.1416 14.0175 11.1416 14.9977C11.1416 15.9779 11.9362 16.7724 12.9164 16.7724C13.8965 16.7724 14.6911 15.9778 14.6911 14.9977C14.6911 14.0175 13.8966 13.2229 12.9164 13.2229ZM12.9164 15.9837C12.3718 15.9837 11.9304 15.5423 11.9304 14.9977C11.9304 14.4532 12.3718 14.0117 12.9164 14.0117C13.4609 14.0117 13.9023 14.4532 13.9023 14.9977C13.9024 15.5423 13.4609 15.9837 12.9164 15.9837Z" fill="#1427C8"/>
<path d="M16.9196 2.87003C16.8375 2.78031 16.7251 2.72414 16.6041 2.71225L3.7665 2.53478L3.41155 1.45017C3.16149 0.725131 2.48253 0.235654 1.71563 0.227539H0.394398C0.176571 0.227539 0 0.40411 0 0.621936C0 0.839763 0.176571 1.01633 0.394398 1.01633H1.71563C2.14445 1.02581 2.52205 1.30116 2.6622 1.70654L5.16662 9.25923L4.96944 9.71278C4.7495 10.2799 4.81555 10.9183 5.14691 11.4284C5.47511 11.9294 6.02724 12.2386 6.62592 12.2566H14.297C14.5148 12.2566 14.6914 12.0801 14.6914 11.8622C14.6914 11.6444 14.5148 11.4678 14.297 11.4678H6.62588C6.2878 11.4594 5.97659 11.2815 5.79764 10.9946C5.62069 10.7111 5.58434 10.3619 5.69905 10.048L5.85682 9.69304L14.1589 8.82536C15.0708 8.72492 15.8209 8.06166 16.0323 7.16888L16.9789 3.2052C17.0215 3.09106 16.9989 2.96269 16.9196 2.87003ZM15.2632 6.99144C15.1352 7.56615 14.6472 7.99006 14.0603 8.0366L5.85682 8.88454L4.02287 3.32357L16.1111 3.50105L15.2632 6.99144Z" fill="#1427C8"/>
</svg>
